<?xml version="1.0" encoding="utf-8"?>
<!-- Generator: Adobe Illustrator 25.0.1, SVG Export Plug-In . SVG Version: 6.00 Build 0)  -->
<svg version="1.1" id="Layer_1" xmlns="http://www.w3.org/2000/svg" xmlns:xlink="http://www.w3.org/1999/xlink" x="0px" y="0px"
	 viewBox="0 0 512 512" style="enable-background:new 0 0 512 512;" xml:space="preserve">
<style type="text/css">
	.st0{opacity:0.15;fill:#4A017D;enable-background:new    ;}
	.st1{opacity:0.8;}
	.st2{fill:#4A017D;}
</style>
<g>
	<g>
		<path class="st0" d="M457.3,512H54.7C24.5,512,0,487.5,0,457.3V54.7C0,24.5,24.5,0,54.7,0h402.5C487.5,0,512,24.5,512,54.7v402.5
			C512,487.5,487.5,512,457.3,512z"/>
	</g>
	<g class="st1">
		<g>
			<path class="st2" d="M336.5,188.8c-24.4-17.9-49.4-39.9-67.2-66.6l-15.6-23.4c-3.3-5-9.5-7.2-15.2-5.4c-5.7,1.7-9.6,7-9.6,12.9
				v212.2c-8-4.7-17.2-7.5-27-7.5c-29.8,0-54.1,24.3-54.1,54.1c0,29.8,24.3,54.1,54.1,54.1s54.1-24.3,54.1-54.1V150.7
				c19.1,24.2,43,44.1,64.5,59.9c10.6,7.7,16.6,19.7,16.6,32.8c0,22.4-18.2,40.6-40.6,40.6c-7.5,0-13.5,6-13.5,13.5
				s6,13.5,13.5,13.5c37.3,0,67.6-30.3,67.6-67.6C364.2,221.9,353.9,201.5,336.5,188.8z"/>
		</g>
	</g>
</g>
</svg>
