<?xml version="1.0" encoding="utf-8"?>
<!-- Generator: Adobe Illustrator 25.0.1, SVG Export Plug-In . SVG Version: 6.00 Build 0)  -->
<svg version="1.1" id="Layer_1" xmlns="http://www.w3.org/2000/svg" xmlns:xlink="http://www.w3.org/1999/xlink" x="0px" y="0px"
	 viewBox="0 0 512 512" style="enable-background:new 0 0 512 512;" xml:space="preserve">
<style type="text/css">
	.st0{fill:#FFFFFF;}
</style>
<g>
	<g id="XMLID_1028_">
		<g id="XMLID_521_">
			<path id="XMLID_560_" class="st0" d="M90.8,375.8L90.8,375.8c0-5.5-4.5-10-10-10s-10,4.5-10,10s4.5,10,10,10
				C86.4,385.8,90.8,381.3,90.8,375.8L90.8,375.8z"/>
			<path id="XMLID_564_" class="st0" d="M261.5,280.8c-2.6,0-5.2,1.1-7.1,2.9c-1.9,1.9-2.9,4.4-2.9,7.1c0,2.6,1.1,5.2,2.9,7.1
				c1.9,1.9,4.4,2.9,7.1,2.9c2.6,0,5.2-1.1,7.1-2.9c1.9-1.9,2.9-4.4,2.9-7.1c0-2.6-1.1-5.2-2.9-7.1
				C266.7,281.8,264.1,280.8,261.5,280.8z"/>
			<path id="XMLID_567_" class="st0" d="M389.9,389.3c-21.4,0-38.8,17.4-38.8,38.8s17.4,38.8,38.8,38.8s38.8-17.4,38.8-38.8
				C428.7,406.7,411.3,389.3,389.9,389.3z M389.9,446.8c-10.3,0-18.7-8.4-18.7-18.7c0-10.3,8.4-18.8,18.7-18.8
				c10.3,0,18.8,8.5,18.8,18.8C408.7,438.4,400.2,446.8,389.9,446.8z"/>
			<path id="XMLID_570_" class="st0" d="M133.1,389.3c-21.4,0-38.7,17.4-38.7,38.8s17.3,38.8,38.7,38.8s38.8-17.4,38.8-38.8
				C171.9,406.7,154.5,389.3,133.1,389.3z M133.1,446.8c-10.3,0-18.7-8.4-18.7-18.7c0-10.3,8.4-18.8,18.7-18.8s18.8,8.5,18.8,18.8
				C151.9,438.4,143.5,446.8,133.1,446.8z"/>
			<path id="XMLID_577_" class="st0" d="M502,0H10C4.5,0,0,4.5,0,10v208c0,5.5,4.5,9.9,10,9.9h167.5l44,76.2l-34.3,59.6
				c-18.6-15.4-43.4-22.7-67.9-18.5c-5.5,0.9-9.1,6.1-8.3,11.5c1,5.5,6.1,9.1,11.5,8.2c26.3-4.4,52.8,8.2,66,31.1
				c17.7,30.5,7.2,69.7-23.4,87.4c-14.8,8.6-32,10.7-48.5,6.4c-16.5-4.4-30.3-15-38.9-29.8c-7.4-12.8-10.1-27.9-7.7-42.6
				c0.9-5.5-2.8-10.6-8.2-11.5c-5.5-0.9-10.6,2.8-11.5,8.2c-3.3,19.2,0.3,39.1,10,56c11.2,19.4,29.3,33.3,51,39.1
				c7.3,2,14.5,2.9,21.9,2.9c14.5,0,28.8-3.8,41.9-11.2c13.8-8.1,24.6-19.5,31.7-32.6c0.1-0.2,54.6-94.5,54.6-94.5
				s54.5,94.2,54.6,94.4c14.2,26.2,42,44,73.8,44c46.3,0,83.9-37.7,83.9-83.9c0-46.3-37.6-84-83.9-84c-20.5,0-39.3,7.5-53.9,19.7
				l-34.4-59.6c0,0,34.5-59.8,44.1-76.2H502c5.6,0,10-4.5,10-9.9V10C512,4.5,507.5,0,502,0z M215.8,413c-1.7-9.2-5-18.3-9.8-26.8
				c-1.5-2.5-3-4.8-4.6-7.1l31.6-54.8l17,29.3L215.8,413z M389.9,364.1c35.3,0,63.9,28.6,63.9,63.9c0,35.2-28.6,63.9-63.9,63.9
				S326,463.2,326,428S354.6,364.1,389.9,364.1z M321.8,379.1c-7.2,9.9-12.1,21.5-14.4,33.9L144.6,131c-0.6-1-1.1-2-1.6-3
				c-4.6-9.1-6.3-19.1-5.3-28.6c1.3-13.2,7.7-25.9,18-34.8l28.9,50.1l13.8,24l87.8,152.1l-4.9,8.5c-1.8,3.1-1.8,7,0,10L321.8,379.1z
				 M297.8,270.8L273.2,228h49.3L297.8,270.8z M492,208H261.6L249,186l-4.6-7.9l-4.3-7.5l-2.7-4.7l-11.2-19.5l-13.8-23.9l-13.9-24.2
				l-4-6.9l-3.3-5.7l-13.8-24l-9.7-20c-16.5-1.8-36.5,20-36.5,20c-16.1,22.6-18.7,53.4-4,79l14.5,25.1l11.5,20l12.7,22H20V20h472
				V208z"/>
		</g>
	</g>
	<g>
		<path class="st0" d="M59.8,127c3.8,0,6.9-1.8,6.9-4v-7.9c0-2.2-3.1-4-6.9-4c-3.8,0-6.9,1.8-6.9,4v7.9
			C52.8,125.2,55.9,127,59.8,127z"/>
		<path class="st0" d="M87.5,127v-15.9c0-2.2-3.1-4-6.9-4s-6.9,1.8-6.9,4V127c0,2.2,3.1,4,6.9,4C84.4,130.9,87.5,129.2,87.5,127z"/>
		<path class="st0" d="M170.8,127v-15.9c0-2.2-3.1-4-6.9-4c-3.8,0-6.9,1.8-6.9,4V127c0,2.2,3.1,4,6.9,4
			C167.7,130.9,170.8,129.2,170.8,127z"/>
		<path class="st0" d="M115.3,134.9v-31.7c0-2.2-3.1-4-6.9-4s-6.9,1.8-6.9,4v31.7c0,2.2,3.1,4,6.9,4
			C112.2,138.9,115.3,137.1,115.3,134.9z"/>
		<path class="st0" d="M143,128v7c0,2.2-3.1,4-7,4c-3.8,0-6.9-1.8-6.9-4v-31.7c0-2.2,3.1-4,6.9-4c0.6,0,1.2,0,1.7,0.1
			C136.7,108.9,138.4,118.8,143,128z"/>
		<path class="st0" d="M198.5,98.5v40.1l-13.8-24V95.3c0-2.2,3.1-4,7-4c1,0,2,0.1,2.9,0.4L198.5,98.5z"/>
		<path class="st0" d="M226.3,150.8V87.3c0-2.2-3.1-4-6.9-4c-3.8,0-6.9,1.8-6.9,4v63.4c0,2.2,3.1,4,6.9,4
			C223.2,154.7,226.3,153,226.3,150.8z"/>
		<path class="st0" d="M254,174.6v-111c0-2.2-3.1-4-6.9-4c-3.8,0-6.9,1.8-6.9,4v111c0,2.2,3.1,4,6.9,4
			C250.9,178.5,254,176.7,254,174.6z"/>
		<path class="st0" d="M462.1,111.1c-3.8,0-6.9,1.8-6.9,4v7.9c0,2.2,3.1,4,6.9,4s6.9-1.8,6.9-4v-7.9
			C469.1,112.9,466,111.1,462.1,111.1z"/>
		<path class="st0" d="M448.2,127v-15.9c0-2.2-3.1-4-6.9-4s-6.9,1.8-6.9,4V127c0,2.2,3.1,4,6.9,4C445.1,130.9,448.2,129.2,448.2,127
			z"/>
		<path class="st0" d="M365,127v-15.9c0-2.2-3.1-4-6.9-4s-6.9,1.8-6.9,4V127c0,2.2,3.1,4,6.9,4C361.9,130.9,365,129.2,365,127z"/>
		<path class="st0" d="M420.5,134.9v-31.7c0-2.2-3.1-4-6.9-4s-6.9,1.8-6.9,4v31.7c0,2.2,3.1,4,6.9,4S420.5,137.1,420.5,134.9z"/>
		<path class="st0" d="M392.7,134.9v-31.7c0-2.2-3.1-4-6.9-4s-6.9,1.8-6.9,4v31.7c0,2.2,3.1,4,6.9,4S392.7,137.1,392.7,134.9z"/>
		<path class="st0" d="M337.3,142.8V95.2c0-2.2-3.1-4-6.9-4s-6.9,1.8-6.9,4v47.6c0,2.2,3.1,4,6.9,4
			C334.1,146.8,337.3,145,337.3,142.8z"/>
		<path class="st0" d="M309.5,150.8V87.3c0-2.2-3.1-4-6.9-4s-6.9,1.8-6.9,4v63.4c0,2.2,3.1,4,6.9,4
			C306.4,154.7,309.5,153,309.5,150.8z"/>
		<path class="st0" d="M281.8,174.6v-111c0-2.2-3.1-4-6.9-4s-6.9,1.8-6.9,4v111c0,2.2,3.1,4,6.9,4
			C278.7,178.5,281.8,176.7,281.8,174.6z"/>
	</g>
</g>
</svg>
