<?xml version="1.0" encoding="utf-8"?>
<!-- Generator: Adobe Illustrator 25.0.1, SVG Export Plug-In . SVG Version: 6.00 Build 0)  -->
<svg version="1.1" id="Layer_1" xmlns="http://www.w3.org/2000/svg" xmlns:xlink="http://www.w3.org/1999/xlink" x="0px" y="0px"
	 viewBox="0 0 512 512" style="enable-background:new 0 0 512 512;" xml:space="preserve">
<style type="text/css">
	.st0{fill:#C163F6;}
	.st1{fill:#FFFFFF;}
</style>
<g>
	<g>
		<circle class="st0" cx="256" cy="256" r="256"/>
	</g>
	<g>
		<path class="st1" d="M234.7,256c0,7.1,4.6,11.2,10.5,16.7l121.5,96.5c2.7,1.3,5.6,2,8.6,2c3.5,0,6.9-0.9,10-2.8
			c5.6-3.4,9.1-9.4,9.1-15.9v-193c0-6.5-3.4-12.5-9.1-15.9c-5.6-3.4-12.6-3.7-18.5-0.8l-121.5,96.5
			C238.6,245.1,234.7,248.9,234.7,256z"/>
		<path class="st1" d="M117.7,256c0,7.1,4.6,11.2,10.5,16.7l121.5,96.5c2.7,1.3,5.6,2,8.6,2c3.5,0,6.9-0.9,10-2.8
			c5.6-3.4,9.1-9.4,9.1-15.9v-193c0-6.5-3.4-12.5-9.1-15.9c-5.6-3.4-12.7-3.7-18.6-0.8l-121.5,96.5
			C121.7,245.1,117.7,248.9,117.7,256z"/>
	</g>
</g>
</svg>
