<?xml version="1.0" encoding="utf-8"?>
<!-- Generator: Adobe Illustrator 25.0.1, SVG Export Plug-In . SVG Version: 6.00 Build 0)  -->
<svg version="1.1" id="Layer_1" xmlns="http://www.w3.org/2000/svg" xmlns:xlink="http://www.w3.org/1999/xlink" x="0px" y="0px"
	 viewBox="0 0 416 512" style="enable-background:new 0 0 416 512;" xml:space="preserve">
<style type="text/css">
	.st0{fill:#C163F6;}
</style>
<g>
	<path class="st0" d="M375.9,64.1h-88v-16c0-26.5-21.5-48-48-48h-64c-26.5,0-48,21.5-48,48v16h-88c-22.1,0-40,17.9-40,40v32
		c0,8.8,7.2,16,16,16h383.8c8.8,0,16-7.2,16-16v-32C415.9,82,398,64.1,375.9,64.1z M160,48.1c0-8.8,7.2-16,16-16h64
		c8.8,0,16,7.2,16,16v16h-96V48.1z"/>
	<path class="st0" d="M30.5,184c-2.9,0-5.1,2.4-5,5.2l13.2,276.9c1.2,25.6,22.3,45.7,47.9,45.7h242.9c25.6,0,46.7-20.1,47.9-45.7
		l13.2-276.9c0.1-2.9-2.1-5.2-5-5.2L30.5,184L30.5,184z M272,224c0-8.8,7.2-16,16-16s16,7.2,16,16v207.9c0,8.8-7.2,16-16,16
		s-16-7.2-16-16V224z M192,224c0-8.8,7.2-16,16-16s16,7.2,16,16v207.9c0,8.8-7.2,16-16,16s-16-7.2-16-16V224z M112,224
		c0-8.8,7.2-16,16-16s16,7.2,16,16v207.9c0,8.8-7.2,16-16,16s-16-7.2-16-16V224z"/>
</g>
</svg>
