<?xml version="1.0" encoding="utf-8"?>
<!-- Generator: Adobe Illustrator 25.0.1, SVG Export Plug-In . SVG Version: 6.00 Build 0)  -->
<svg version="1.1" id="Layer_1" xmlns="http://www.w3.org/2000/svg" xmlns:xlink="http://www.w3.org/1999/xlink" x="0px" y="0px"
	 viewBox="0 0 512 512" style="enable-background:new 0 0 512 512;" xml:space="preserve">
<style type="text/css">
	.st0{fill:#C163F6;}
	.st1{fill:#FFFFFF;}
</style>
<g>
	<g>
		<circle class="st0" cx="256" cy="256" r="256"/>
	</g>
	<g>
		<path class="st1" d="M266.8,239.3l-121.5-96.5c-5.9-3-12.9-2.6-18.5,0.8c-5.6,3.4-9.1,9.4-9.1,15.9v193c0,6.5,3.4,12.5,9.1,15.9
			c3,1.8,6.5,2.8,10,2.8c2.9,0,5.9-0.7,8.6-2l121.5-96.5c5.8-5.5,10.5-9.6,10.5-16.7S273.4,245.1,266.8,239.3z"/>
		<path class="st1" d="M383.8,239.3l-121.5-96.5c-5.9-3-12.9-2.6-18.6,0.8c-5.6,3.4-9.1,9.4-9.1,15.9v193c0,6.5,3.4,12.5,9.1,15.9
			c3,1.8,6.5,2.8,10,2.8c2.9,0,5.9-0.7,8.6-2l121.5-96.5c5.8-5.5,10.5-9.6,10.5-16.7S390.3,245.1,383.8,239.3z"/>
	</g>
</g>
</svg>
