<?xml version="1.0" encoding="utf-8"?>
<!-- Generator: Adobe Illustrator 25.0.1, SVG Export Plug-In . SVG Version: 6.00 Build 0)  -->
<svg version="1.1" id="Layer_1" xmlns="http://www.w3.org/2000/svg" xmlns:xlink="http://www.w3.org/1999/xlink" x="0px" y="0px"
	 viewBox="0 0 512 512" style="enable-background:new 0 0 512 512;" xml:space="preserve">
<style type="text/css">
	.st0{fill:#C163F6;}
	.st1{fill:#FFFFFF;}
</style>
<g>
	<g>
		<circle class="st0" cx="256" cy="256" r="256"/>
	</g>
	<path class="st1" d="M193.2,371.9L193.2,371.9c-10.9,0-19.7-8.8-19.7-19.7V159.8c0-10.9,8.8-19.7,19.7-19.7l0,0
		c10.9,0,19.7,8.8,19.7,19.7v192.5C212.9,363.1,204.1,371.9,193.2,371.9z"/>
	<path class="st1" d="M318.8,371.9L318.8,371.9c-10.9,0-19.7-8.8-19.7-19.7V159.8c0-10.9,8.8-19.7,19.7-19.7l0,0
		c10.9,0,19.7,8.8,19.7,19.7v192.5C338.5,363.1,329.7,371.9,318.8,371.9z"/>
</g>
</svg>
