<?xml version="1.0" encoding="utf-8"?>
<!-- Generator: Adobe Illustrator 25.0.1, SVG Export Plug-In . SVG Version: 6.00 Build 0)  -->
<svg version="1.1" id="Layer_1" xmlns="http://www.w3.org/2000/svg" xmlns:xlink="http://www.w3.org/1999/xlink" x="0px" y="0px"
	 viewBox="0 0 512 465" style="enable-background:new 0 0 512 465;" xml:space="preserve">
<style type="text/css">
	.st0{fill:#FFFFFF;}
</style>
<g>
	<path class="st0" d="M467.7,99.6V65.1c0-24.4-19.9-44.3-44.3-44.3H216l-7.7-12.6c-2.7-4.4-7.5-7.1-12.6-7.1H44.3
		C19.9,1.1,0,21,0,45.4v374.2c0,24.4,19.9,44.3,44.3,44.3h423.4c24.4,0,44.3-19.9,44.3-44.3V143.9C512,119.5,492.1,99.6,467.7,99.6z
		 M423.4,50.3c8.1,0,14.8,6.6,14.8,14.8v34.5H264.3l-19.8-32.3l-10.4-17C234.1,50.3,423.4,50.3,423.4,50.3z M482.5,419.6
		c0,8.1-6.6,14.8-14.8,14.8H44.3c-8.1,0-14.8-6.6-14.8-14.8V45.4c0-8.1,6.6-14.8,14.8-14.8h143.1l7.7,12.6l0,0l28.5,46.5l19.8,32.3
		c2.7,4.4,7.5,7.1,12.6,7.1h211.7c8.1,0,14.8,6.6,14.8,14.8V419.6L482.5,419.6z"/>
	<path class="st0" d="M131.1,296.1h215.1l-23.4,23.4c-5.6,5.6-5.6,14.8,0,20.4s14.8,5.6,20.4,0l48.1-48.1c5.6-5.6,5.6-14.8,0-20.4
		l0,0l-48.1-48.1c-5.6-5.6-14.8-5.6-20.4,0s-5.6,14.8,0,20.4l23.4,23.4H131.1c-8,0-14.4,6.5-14.4,14.4S123.1,296.1,131.1,296.1z"/>
</g>
</svg>
