<?xml version="1.0" encoding="utf-8"?>
<!-- Generator: Adobe Illustrator 25.0.1, SVG Export Plug-In . SVG Version: 6.00 Build 0)  -->
<svg version="1.1" id="Layer_1" xmlns="http://www.w3.org/2000/svg" xmlns:xlink="http://www.w3.org/1999/xlink" x="0px" y="0px"
	 viewBox="0 0 512 512" style="enable-background:new 0 0 512 512;" xml:space="preserve">
<style type="text/css">
	.st0{fill:#FFFFFF;}
</style>
<g>
	<g id="_x34__4_">
		<g>
			<path class="st0" d="M507.2,484.1L375,354.1c34.6-37.6,55.9-87.4,55.9-142.1c0-117.1-96.5-212-215.4-212S0,94.9,0,212
				s96.4,212,215.4,212c51.4,0,98.6-17.8,135.6-47.3l132.7,130.6c6.5,6.4,17,6.4,23.4,0C513.6,500.9,513.6,490.5,507.2,484.1z
				 M215.4,391.4c-100.7,0-182.3-80.3-182.3-179.4S114.7,32.6,215.4,32.6S397.7,112.9,397.7,212S316.1,391.4,215.4,391.4z"/>
		</g>
	</g>
</g>
</svg>
