<?xml version="1.0" encoding="utf-8"?>
<!-- Generator: Adobe Illustrator 25.0.1, SVG Export Plug-In . SVG Version: 6.00 Build 0)  -->
<svg version="1.1" id="Layer_1" xmlns="http://www.w3.org/2000/svg" xmlns:xlink="http://www.w3.org/1999/xlink" x="0px" y="0px"
	 viewBox="0 0 470 512" style="enable-background:new 0 0 470 512;" xml:space="preserve">
<style type="text/css">
	.st0{fill:#C163F6;}
</style>
<path class="st0" d="M384.3,341.3c-24.8,0-47.1,10.6-62.7,27.5l-154.3-88c2.4-7.9,3.7-16.2,3.7-24.8c0-8.6-1.3-17-3.7-24.9l154.3-88
	c15.6,16.9,37.9,27.5,62.7,27.5c47.1,0,85.3-38.3,85.3-85.3c0-47.1-38.3-85.3-85.3-85.3S299,38.3,299,85.3c0,7,0.9,13.7,2.4,20.2
	L145,194.7c-15.4-14.9-36.3-24.1-59.3-24.1c-47.1,0-85.3,38.3-85.3,85.3s38.3,85.3,85.3,85.3c23,0,44-9.2,59.3-24.1l156.4,89.2
	c-1.6,6.5-2.4,13.3-2.4,20.2c0,47.1,38.3,85.3,85.3,85.3s85.3-38.3,85.3-85.3C469.7,379.6,431.4,341.3,384.3,341.3z"/>
</svg>
