<?xml version="1.0" encoding="utf-8"?>
<!-- Generator: Adobe Illustrator 25.0.1, SVG Export Plug-In . SVG Version: 6.00 Build 0)  -->
<svg version="1.1" id="Layer_1" xmlns="http://www.w3.org/2000/svg" xmlns:xlink="http://www.w3.org/1999/xlink" x="0px" y="0px"
	 viewBox="0 0 512 512" style="enable-background:new 0 0 512 512;" xml:space="preserve">
<style type="text/css">
	.st0{fill:#4D4D4D;}
</style>
<g>
	<path class="st0" d="M466.8,29.4c8.7,0,15.7,7.1,15.7,15.7v421.7c0,8.7-7.1,15.7-15.7,15.7H45.2c-8.7,0-15.7-7.1-15.7-15.7V45.2
		c0-8.7,7.1-15.7,15.7-15.7h421.6 M466.8,0H45.2C20.2,0,0,20.2,0,45.2v421.7C0,491.8,20.2,512,45.2,512h421.7
		c24.9,0,45.2-20.2,45.2-45.2V45.2C512,20.2,491.8,0,466.8,0L466.8,0z"/>
</g>
</svg>
