<?xml version="1.0" encoding="utf-8"?>
<!-- Generator: Adobe Illustrator 25.0.1, SVG Export Plug-In . SVG Version: 6.00 Build 0)  -->
<svg version="1.1" id="Layer_1" xmlns="http://www.w3.org/2000/svg" xmlns:xlink="http://www.w3.org/1999/xlink" x="0px" y="0px"
	 viewBox="0 0 512 512" style="enable-background:new 0 0 512 512;" xml:space="preserve">
<style type="text/css">
	.st0{fill:#FFFFFF;}
</style>
<g>
	<g id="XMLID_1_">
		<g id="XMLID_2_">
			<path id="XMLID_7_" class="st0" d="M90.9,375.7L90.9,375.7c0-5.5-4.5-10-10-10s-10,4.5-10,10s4.5,10,10,10S90.9,381.3,90.9,375.7
				L90.9,375.7z"/>
			<path id="XMLID_6_" class="st0" d="M261.5,280.7c-2.6,0-5.2,1.1-7.1,2.9c-1.9,1.9-2.9,4.4-2.9,7.1s1.1,5.2,2.9,7.1
				c1.9,1.9,4.4,2.9,7.1,2.9c2.6,0,5.2-1.1,7.1-2.9c1.9-1.9,2.9-4.4,2.9-7.1c0-2.6-1.1-5.2-2.9-7.1
				C266.7,281.8,264.2,280.7,261.5,280.7z"/>
			<path id="XMLID_5_" class="st0" d="M389.9,466.8c21.4,0,38.8-17.4,38.8-38.8s-17.4-38.8-38.8-38.8s-38.8,17.4-38.8,38.8
				S368.5,466.8,389.9,466.8z M389.9,409.3c10.3,0,18.8,8.4,18.8,18.8s-8.4,18.8-18.8,18.8s-18.8-8.4-18.8-18.8
				S379.6,409.3,389.9,409.3z"/>
			<path id="XMLID_4_" class="st0" d="M171.9,428c0-21.4-17.4-38.8-38.8-38.8S94.3,406.6,94.3,428s17.4,38.8,38.8,38.8
				S171.9,449.4,171.9,428z M114.4,428c0-10.3,8.4-18.8,18.8-18.8S152,417.6,152,428s-8.4,18.8-18.8,18.8S114.4,438.4,114.4,428z"/>
			<path id="XMLID_3_" class="st0" d="M502,0H10C4.5,0,0,4.5,0,10v208c0,5.5,4.5,10,10,10h167.5l44,76.2l-34.4,59.5
				c-18.5-15.5-43.3-22.7-67.9-18.5c-5.4,0.9-9.1,6.1-8.2,11.5s6.1,9.1,11.5,8.2c26.2-4.4,52.7,8.1,66,31.1
				c17.6,30.5,7.1,69.7-23.4,87.4c-14.8,8.5-32,10.8-48.5,6.4s-30.3-15-38.8-29.8c-7.4-12.9-10.2-28-7.7-42.6
				c0.9-5.4-2.7-10.6-8.2-11.5c-5.4-0.9-10.6,2.7-11.5,8.2c-3.2,19.2,0.3,39.1,10.1,55.9c11.2,19.4,29.3,33.3,51,39.1
				c7.2,1.9,14.6,2.9,21.9,2.9c14.5,0,28.9-3.8,41.8-11.3c13.9-8,24.6-19.4,31.8-32.6c0.2-0.2,54.6-94.5,54.6-94.5
				s54.4,94.2,54.5,94.4c14.2,26.2,42,44,73.8,44c46.3,0,84-37.7,84-84s-37.7-84-84-84c-20.5,0-39.3,7.4-53.9,19.7l-34.4-59.5
				c0,0,34.5-59.8,44-76.2H502c5.5,0,10-4.5,10-10V10C512,4.5,507.5,0,502,0L502,0z M492,42h-29.2V20H492V42z M492,166H364.4V62H492
				V166z M315.2,208v-22h29.2v22H315.2z M127.2,140.9l14.5,25.1H20V62h111.1C115,84.6,112.5,115.4,127.2,140.9z M98.4,186v22H69.2
				v-22H98.4z M413.6,42V20h29.2v22H413.6z M393.6,42h-29.2V20h29.2V42z M344.4,42h-29.2V20h29.2V42z M295.2,42H266V20h29.2V42z
				 M246,42h-29.2V20H246V42z M196.8,42h-29.2V20h29.2V42z M147.6,42h-29.2V20h29.2V42z M98.4,42H69.2V20h29.2
				C98.4,20,98.4,42,98.4,42z M344.4,62v104h-107l-60-104H344.4z M248.9,186h46.3v22h-33.6L248.9,186z M364.4,186h29.2v22h-29.2V186
				z M413.6,186h29.2v22h-29.2V186z M49.2,20v22H20V20H49.2z M20,186h29.2v22H20V186z M118.4,208v-22h34.8l12.7,22H118.4z
				 M215.7,412.9c-1.7-9.2-4.9-18.3-9.9-26.9c-1.4-2.4-2.9-4.8-4.5-7l31.7-54.9l17,29.4L215.7,412.9z M389.9,364.1
				c35.3,0,64,28.7,64,64s-28.7,64-64,64s-64-28.7-64-64S354.6,364.1,389.9,364.1z M321.8,379.1c-7.1,9.9-12.2,21.4-14.4,33.8
				l-162.8-282c-12.9-22.3-7.6-50.2,11.2-66.5l130.6,226.2l-4.9,8.5c-1.8,3.1-1.8,6.9,0,10L321.8,379.1z M297.8,270.7L273.2,228
				h49.3L297.8,270.7z M462.8,208v-22H492v22H462.8z"/>
		</g>
	</g>
	<path class="st0" d="M229.6,81.1v65.7c0,0.5,0.5,0.7,0.9,0.5l56.9-32.9c0.4-0.2,0.4-0.8,0-1l-56.9-32.9
		C230.1,80.4,229.6,80.7,229.6,81.1z"/>
</g>
</svg>
