<?xml version="1.0" encoding="utf-8"?>
<!-- Generator: Adobe Illustrator 25.0.1, SVG Export Plug-In . SVG Version: 6.00 Build 0)  -->
<svg version="1.1" id="Layer_1" xmlns="http://www.w3.org/2000/svg" xmlns:xlink="http://www.w3.org/1999/xlink" x="0px" y="0px"
	 viewBox="0 0 502 512" style="enable-background:new 0 0 502 512;" xml:space="preserve">
<style type="text/css">
	.st0{fill:#FFFFFF;}
</style>
<g>
	<g>
		<g>
			<path class="st0" d="M471,254c-27.3-20-55.3-44.6-75.2-74.5l-17.4-26.2c-3.7-5.5-10.6-8-17-6.1s-10.7,7.8-10.7,14.5v237.4
				c-8.9-5.2-19.2-8.4-30.3-8.4c-33.4,0-60.5,27.1-60.5,60.5s27.1,60.5,60.5,60.5s60.5-27.1,60.5-60.5V211.4
				c21.4,27,48.1,49.4,72.2,67c11.8,8.7,18.6,22,18.6,36.6c0,25-20.4,45.4-45.4,45.4c-8.4,0-15.1,6.8-15.1,15.1s6.8,15.1,15.1,15.1
				c41.7,0,75.7-33.9,75.7-75.7C502,291,490.4,268.2,471,254z"/>
		</g>
	</g>
	<g>
		<path class="st0" d="M298.3,229.8l-126.5-75.9c-3.9-2.3-8.8-2.4-12.7-0.2c-4,2.2-6.4,6.4-6.4,11v151.8c0,4.6,2.4,8.8,6.4,11
			s8.8,2.2,12.7-0.2l126.5-75.9c2.3-1.4,4.1-3.5,5.1-5.9c0.6-1.5,1-3.2,1-4.9C304.5,236.2,302.1,232,298.3,229.8z M178,294.2V187.1
			l89.3,53.6l-8.2,4.9L178,294.2z"/>
		<path class="st0" d="M419.2,0.3H12.7C5.7,0.3,0,5.9,0,12.9v379.5c0,7,5.7,12.7,12.7,12.7h208.8l29.6-25.3H25.3V101.5h381.2v41.3
			l25.3,29.6V12.9C431.8,6,426.1,0.3,419.2,0.3z M25.3,25.6h51.2l-51.2,38V25.6z M50.9,76.2l68-50.6H178l-67.5,50.6H50.9z
			 M152.6,76.2l67.5-50.6h59l-67.5,50.6H152.6z M253.9,76.2l67.5-50.6H381l-68,50.6H253.9z M406.5,76.2h-51.2l51.2-38.1V76.2z"/>
	</g>
</g>
</svg>
