<?xml version="1.0" encoding="utf-8"?>
<!-- Generator: Adobe Illustrator 25.0.1, SVG Export Plug-In . SVG Version: 6.00 Build 0)  -->
<svg version="1.1" id="Layer_1" xmlns="http://www.w3.org/2000/svg" xmlns:xlink="http://www.w3.org/1999/xlink" x="0px" y="0px"
	 viewBox="0 0 512 512" style="enable-background:new 0 0 512 512;" xml:space="preserve">
<style type="text/css">
	.st0{fill:#C163F6;}
	.st1{fill:#FFFFFF;}
</style>
<g>
	<g>
		<circle class="st0" cx="256" cy="256" r="256"/>
	</g>
	<g>
		<g>
			<g id="_x34__6_">
				<g>
					<path class="st1" d="M370.2,359.7l-60.1-59.1c15.7-17.1,25.4-39.7,25.4-64.6c0-53.2-43.8-96.4-97.9-96.4s-97.9,43.1-97.9,96.4
						s43.8,96.4,97.9,96.4c23.4,0,44.8-8.1,61.6-21.5l60.3,59.4c2.9,2.9,7.7,2.9,10.6,0C373.1,367.3,373.1,362.6,370.2,359.7z
						 M237.6,317.5c-45.8,0-82.8-36.5-82.8-81.5s37.1-81.5,82.8-81.5c45.8,0,82.8,36.5,82.8,81.5S283.3,317.5,237.6,317.5z"/>
				</g>
			</g>
		</g>
		<g>
			<path class="st1" d="M183.3,229.5v12.6h108.4v-12.6H183.3z"/>
		</g>
	</g>
</g>
</svg>
