<?xml version="1.0" encoding="utf-8"?>
<!-- Generator: Adobe Illustrator 25.0.1, SVG Export Plug-In . SVG Version: 6.00 Build 0)  -->
<svg version="1.1" id="Layer_1" xmlns="http://www.w3.org/2000/svg" xmlns:xlink="http://www.w3.org/1999/xlink" x="0px" y="0px"
	 viewBox="0 0 512 512" style="enable-background:new 0 0 512 512;" xml:space="preserve">
<style type="text/css">
	.st0{fill:#9989FF;}
	.st1{fill:#FFFFFF;}
</style>
<g>
	<circle class="st0" cx="256" cy="256" r="256"/>
	<g>
		<g>
			<g>
				<path class="st1" d="M128.4,327.5H336c1.9,0,3.7-0.7,5.1-1.8c2-1.7,47.5-40.8,50.2-125.2H168.4c-2.8,76.7-44.6,112.7-45.1,113.1
					c-2.6,2.2-3.5,5.7-2.3,8.8C122.1,325.4,125,327.5,128.4,327.5z"/>
				<path class="st1" d="M383.6,152.7h-39.7v-7.9c0-4.4-3.5-7.9-7.9-7.9s-7.9,3.5-7.9,7.9v7.9h-40.2v-7.9c0-4.4-3.5-7.9-7.9-7.9
					s-7.9,3.5-7.9,7.9v7.9h-39.7v-7.9c0-4.4-3.5-7.9-7.9-7.9s-7.9,3.5-7.9,7.9v7.9h-39.7c-4.4,0-7.9,3.5-7.9,7.9v23.8h222.9v-23.8
					C391.6,156.2,388.1,152.7,383.6,152.7z"/>
				<path class="st1" d="M351.2,337.8c-4.3,3.6-9.7,5.5-15.3,5.5H168.6v23.8c0,4.4,3.6,7.9,7.9,7.9h207c4.4,0,7.9-3.6,7.9-7.9v-89
					C376.2,315.7,354.9,334.8,351.2,337.8z"/>
			</g>
		</g>
	</g>
</g>
</svg>
