<?xml version="1.0" encoding="utf-8"?>
<!-- Generator: Adobe Illustrator 25.0.1, SVG Export Plug-In . SVG Version: 6.00 Build 0)  -->
<svg version="1.1" id="Layer_1" xmlns="http://www.w3.org/2000/svg" xmlns:xlink="http://www.w3.org/1999/xlink" x="0px" y="0px"
	 viewBox="0 0 512 512" style="enable-background:new 0 0 512 512;" xml:space="preserve">
<style type="text/css">
	.st0{fill:#3BC2FF;}
	.st1{fill:#FFFFFF;}
</style>
<g>
	<circle class="st0" cx="256" cy="256" r="256"/>
	<g>
		<g>
			<g>
				<g>
					<g>
						<path class="st1" d="M345.4,136.9H181.5c-3.9,0-7,3.1-7,7v30.7h-7.9c-3.9,0-7,3.1-7,7s3.1,7,7,7h7.9v23.3h-7.9
							c-3.9,0-7,3.1-7,7s3.1,7,7,7h7.9V249h-7.9c-3.9,0-7,3.1-7,7s3.1,7,7,7h7.9v23.3h-7.9c-3.9,0-7,3.1-7,7s3.1,7,7,7h7.9v23.3
							h-7.9c-3.9,0-7,3.1-7,7s3.1,7,7,7h7.9v30.7c0,3.9,3.1,7,7,7h163.8c3.9,0,7-3.1,7-7V143.8C352.3,140,349.2,136.9,345.4,136.9z
							 M300.7,311.4c-3.9,0-7-3.1-7-7c0-18.5-11.3-37.7-30.3-37.7c-18.9,0-30.3,19.2-30.3,37.7c0,3.9-3.1,7-7,7s-7-3.1-7-7
							c0-17.7,8.1-36.1,22.9-45.5c-7.2-6.1-11.8-15.1-11.8-25.2c0-18.2,14.8-33,33-33s33,14.8,33,33c0,10.1-4.6,19.2-11.8,25.2
							c14.8,9.4,22.9,27.8,22.9,45.5C307.7,308.3,304.5,311.4,300.7,311.4z"/>
					</g>
				</g>
				<g>
					<circle class="st1" cx="263.4" cy="233.7" r="19.1"/>
				</g>
			</g>
		</g>
	</g>
</g>
</svg>
