<?xml version="1.0" encoding="utf-8"?>
<!-- Generator: Adobe Illustrator 25.0.1, SVG Export Plug-In . SVG Version: 6.00 Build 0)  -->
<svg version="1.1" id="Layer_1" xmlns="http://www.w3.org/2000/svg" xmlns:xlink="http://www.w3.org/1999/xlink" x="0px" y="0px"
	 viewBox="0 0 512 512" style="enable-background:new 0 0 512 512;" xml:space="preserve">
<style type="text/css">
	.st0{fill:#18C88B;}
	.st1{fill:none;}
	.st2{fill:#DB3E3E;}
	.st3{fill:#FDAB70;}
	.st4{fill:#D68554;}
	.st5{fill:#26120B;}
	.st6{fill:#FFFFFF;}
	.st7{fill:#FF5050;}
	.st8{fill:#E54848;}
	.st9{fill:#39171C;}
	.st10{fill:#260F13;}
	.st11{fill:#C6061A;}
	.st12{fill:#FC2125;}
</style>
<g>
	<path id="SVGID_1_" class="st0" d="M512,256c0,141.4-114.6,256-256,256S0,397.4,0,256S114.6,0,256,0S512,114.6,512,256z"/>
</g>
<path class="st1" d="M512,256c0,93.9-50.6,176-126,220.5c-12.2,7.2-25.1,13.5-38.5,18.6c-5.8,2.2-11.6,4.2-17.6,6
	c-1.6,0.5-3.2,0.9-4.8,1.4c-15.3,4.3-31.2,7.2-47.5,8.6c-5,0.4-10.1,0.7-15.2,0.8c-2.2,0-4.3,0.1-6.5,0.1c-3.6,0-7.2-0.1-10.7-0.2
	c-5.2-0.2-10.3-0.6-15.4-1.1c-15.3-1.5-30.1-4.4-44.5-8.5c-0.2,0-0.3-0.1-0.5-0.1c-8.3-2.4-16.5-5.2-24.5-8.4
	c-13.4-5.4-26.3-11.9-38.5-19.4C48.8,429.1,0,348.2,0,256C0,114.6,114.6,0,256,0S512,114.6,512,256z"/>
<g>
	<path class="st2" d="M212.3,360.2h81.4v-30.1c0,0-8.6-7.9-36-7.9s-38.4,5.3-38.4,5.3L212.3,360.2z"/>
	<polygon class="st3" points="185.4,423.5 325.2,423.5 337.9,355.3 278.8,342.6 278.8,303.8 231.9,303.8 231.9,342.6 172.8,355.3 	
		"/>
	<path class="st4" d="M231.9,311.7c0,0,10.5,15.8,24.3,15.8c13.7,0,22.7-15.8,22.7-15.8v-7.9h-47V311.7z"/>
	<g>
		<path class="st3" d="M335.2,246.9c-8,25.3-44.7,71-78.1,71c-30,0-69.4-38-78.7-71c-9.3-33.1-6-71-6-71c0-45,13.3-93.6,84.7-93.6
			s84.7,56.3,84.7,99.9C341.8,182.2,343.2,221.6,335.2,246.9z"/>
		<path class="st3" d="M151.3,227.1c4.5,14.9,20,22.7,23.5,14.9c3.4-7.6,10.2-11.7,8.1-24.4c-2.1-12.6-18.4-26.2-25.4-22.4
			C146.5,201.2,147.6,214.9,151.3,227.1z"/>
		<path class="st3" d="M359.6,225.5c-4.5,14.9-20,22.7-23.5,14.9c-3.4-7.6-10.2-11.7-8.1-24.4c2.1-12.6,18.4-26.2,25.4-22.4
			C364.4,199.6,363.3,213.3,359.6,225.5z"/>
		<path class="st5" d="M324.8,229c13.4-6.7,11.9-35.3,28.6-35.3c16.1-57.7-25-130-53.3-118.2c-10.2-19.7-36.6-22.3-64.6-18.8
			c-67.6,8.4-95.5,85.5-80.7,140.4C170.2,187,164,216,185,229c-8.5-18.3,10.3-13.1,1.2-42.6c8.8-12.5,79.3-12.3,106.3-62.6
			c8,25.7,16.6,35.2,30.6,54.2C337.2,197,329.8,221.3,324.8,229z"/>
	</g>
	<path class="st5" d="M306.3,47.8c0,22.6-22.1,48.5-49.4,48.5s-49.4-25.9-49.4-48.5s22.1-33.4,49.4-33.4
		C284.1,14.4,306.3,25.1,306.3,47.8z"/>
	<path class="st6" d="M325.2,423.5v79c-15.3,4.3-31.2,7.2-47.5,8.6c-5,0.4-10.1,0.7-15.2,0.8c-2.2,0-4.3,0.1-6.5,0.1
		c-3.6,0-7.2-0.1-10.7-0.2c-5.2-0.2-10.3-0.6-15.4-1.1c-15.3-1.5-30.1-4.4-44.5-8.5v-78.6H325.2z"/>
	<path class="st7" d="M343.6,355.2L343.6,355.2l-3,72.5c0,0-11.5,50.6-12.2,67.5c0.5,1.9,1.1,3.8,1.6,6c-1.6,0.5-3.2,0.9-4.8,1.4
		c-15.3,4.3-31.2,7.2-47.5,8.6c-5,0.4-10.1,0.7-15.2,0.8v-21.6l0-0.1c0,0,0-0.1,0-0.1l13-66.6l3.8-19.3l8.6-44l2.9-15l2.9-14.6
		l0.1-0.5v0l0,0.1c0,0,0,0,0,0l17.4,18.1l0,0L343.6,355.2z"/>
	<path class="st8" d="M311.3,348.2L311.3,348.2l-0.2,1.3l-10.3,74l-1.5,10.8l-14.1,12.3l10.2,10.6l-17.8,53.9
		c-5,0.4-10.1,0.7-15.2,0.8v-21.6c0,0,0,0,0-0.1c0,0,0-0.1,0-0.1c0.6-2.7,6.9-32.8,13.3-66.6c1.2-6.3,2.4-12.8,3.5-19.3
		c2.8-15.6,5.3-31,7.1-44c0.8-5.7,1.4-11,1.9-15.6c0.8-8.2,0.9-14.3,0.2-17.5c0,0,0,0,0,0c0.3,0.1,0.6,0.3,0.9,0.4
		c0.3,0.1,0.6,0.3,0.9,0.4c0.2,0.1,0.4,0.2,0.6,0.3c0.8,0.5,1.6,0.9,2.4,1.5c0,0,0.1,0.1,0.1,0.1c0.1,0.1,0.3,0.2,0.4,0.3
		c0,0,0,0,0,0c0,0,0,0,0,0C303.3,336.8,311.2,348.2,311.3,348.2z"/>
	<path class="st7" d="M386,476.5c-12.2,7.2-25.1,13.5-38.5,18.6c-3.9-34.9-7-62-7-67.3v-0.1c0-12-7-44.3-4.8-61.4
		c0.2-1.3,0.4-2.4,0.7-3.5c0,0,0,0,0-0.1c1.2-4.6,3.4-7.4,7.1-7.4c16.4,0,28.4,19.7,36.9,59.8C381.5,419.7,383.7,444.5,386,476.5z"
		/>
	<path class="st7" d="M245.3,490.7v21.1c-5.2-0.2-10.3-0.6-15.4-1.1c-15.3-1.5-30.1-4.4-44.5-8.5c-0.2,0-0.3-0.1-0.5-0.1
		c0.2-0.6,0.3-1.1,0.5-1.7c0-0.1,0.1-0.2,0.1-0.3c0-0.5,0-1-0.1-1.6c-1.6-18.5-18.1-70.3-18.1-70.3l-0.1-1.6l-2.9-70.9l32.2-6.9
		l0.1,0l17.4-18.2l2.2,11.4l0.8,3.9l2.8,14.4l8.7,44.4l3.7,18.9l13,66.7c0,0.1,0,0.2,0.1,0.3C245.3,490.5,245.3,490.6,245.3,490.7
		C245.3,490.7,245.3,490.7,245.3,490.7z"/>
	<path class="st8" d="M245.3,490.7v21.1c-5.2-0.2-10.3-0.6-15.4-1.1l-17.5-53.1l10.2-10.5l-14.1-12.3l-1.6-11.3l-10.2-73.3l-0.2-1.4
		v0c0.1,0,11.2-16.3,22.8-21.2c0,0.2-0.1,0.3-0.1,0.5c-0.6,3.3-0.4,9.3,0.4,17.2c0.4,4.5,1,9.5,1.8,15c1.8,13.1,4.3,28.7,7.1,44.4
		c1.1,6.3,2.3,12.7,3.5,18.9c6.2,32.9,12.4,62.3,13.3,66.7c0,0.1,0,0.2,0.1,0.3C245.3,490.5,245.3,490.6,245.3,490.7
		C245.3,490.7,245.3,490.7,245.3,490.7z"/>
	<path class="st7" d="M167.2,426.5c0,0.6,0,1.1,0,1.6c0,5.2-3,31.5-6.7,65.5c-13.4-5.4-26.3-11.9-38.5-19.4
		c2.3-30.7,4.4-54.3,5.3-58.8c8.5-40.1,20.5-59.8,36.9-59.8h0.1C180.2,355.8,168,408.3,167.2,426.5z"/>
	<g>
		<g>
			<path class="st9" d="M199.9,198.5c0,0-0.4-0.3-1.1-0.7c-0.4-0.3-0.8-0.8-1.2-1.3c-0.3-0.5-0.5-1-0.7-1.6
				c-0.6-2.2-0.3-4.3-0.3-4.3s0.3,2.1,1.4,3.8c0.3,0.4,0.6,0.7,0.9,1c0.3,0.2,0.5,0.3,0.8,0.5c0.8,0.2,1.3,0.4,1.3,0.4
				c0.7,0.2,1.1,0.9,0.9,1.6c-0.2,0.7-0.9,1.1-1.6,0.9C200.2,198.6,200.1,198.6,199.9,198.5z"/>
		</g>
		<path class="st6" d="M235.6,202.5c0,4.6-7.6,11.3-17.1,11.3c-11.6,0-18.5-6.7-18.5-13.9c0-7.1,10-11.9,18.5-10.3
			C227.8,191.3,235.6,197.4,235.6,202.5z"/>
		<path class="st9" d="M230.4,202.4c0,4.3-2.2,8.1-5.5,10.4c-4.2,2.1-12.6,0.9-14.5-0.3c-3.1-2.3-5.1-5.9-5.1-10
			c0-6.9,5.6-12.5,12.5-12.5C224.7,189.9,230.4,195.5,230.4,202.4z"/>
		<g>
			<g>
				<path class="st9" d="M200.2,202c0,0-0.2-0.7-0.4-2.1c-0.1-1.4,0.2-3.5,1.6-5.5c1.4-2,3.7-3.8,6.5-4.9c2.8-1.1,6-1.6,9.2-1.4
					c1.7,0.1,3.1,0.5,4.6,1s2.9,1,4.2,1.7c2.7,1.2,4.9,3,6.5,4.7c1.7,1.7,2.6,3.5,2.9,4.9c0.3,1.4,0.1,2.1,0.2,2.1
					c0,0-0.1-0.8-0.6-1.9c-0.5-1.2-1.8-2.6-3.4-4c-1.7-1.4-4-2.6-6.5-3.7c-1.2-0.5-2.6-1-4-1.4c-1.3-0.4-2.9-0.6-4.2-0.8
					c-5.6-0.5-11.7,1.4-14.4,4.6C199.6,198.5,200.4,202.1,200.2,202z"/>
			</g>
		</g>
		<path class="st10" d="M226.4,204.6c0,4.4-3.6,8-8,8s-8-3.6-8-8s3.6-8,8-8C222.8,196.6,226.4,200.2,226.4,204.6z"/>
		<circle class="st6" cx="223.8" cy="200.9" r="3.6"/>
		<circle class="st6" cx="221.4" cy="195.5" r="1.2"/>
	</g>
	<g>
		<g>
			<path class="st9" d="M316,196.2c0,0,0.5-0.1,1.3-0.4c0.3-0.1,0.4-0.3,0.8-0.5c0.3-0.3,0.6-0.6,0.9-1c1.1-1.6,1.4-3.8,1.4-3.8
				s0.3,2.1-0.3,4.3c-0.2,0.5-0.4,1.1-0.7,1.6c-0.4,0.5-0.8,1-1.2,1.3c-0.7,0.4-1.1,0.7-1.1,0.7c-0.6,0.4-1.4,0.2-1.8-0.4
				c-0.4-0.6-0.2-1.4,0.4-1.8C315.7,196.3,315.9,196.3,316,196.2z"/>
		</g>
		<path class="st6" d="M281.3,202.5c0,4.6,7.6,11.3,17.1,11.3c11.6,0,18.6-6.7,18.6-13.9c0-7.1-10-11.9-18.5-10.3
			C289.2,191.3,281.3,197.4,281.3,202.5z"/>
		<path class="st9" d="M286.6,202.4c0,4.3,2.2,8.1,5.5,10.4c4.2,2.1,12.6,0.9,14.5-0.3c3.1-2.3,5-5.9,5-10c0-6.9-5.6-12.5-12.5-12.5
			C292.2,189.9,286.6,195.5,286.6,202.4z"/>
		<g>
			<g>
				<path class="st9" d="M316.8,202c-0.2,0.1,0.6-3.5-2.3-6.7c-2.8-3.2-8.8-5.1-14.5-4.6c-1.3,0.2-2.9,0.5-4.2,0.8
					c-1.4,0.4-2.7,0.8-4,1.4c-2.5,1.1-4.8,2.3-6.4,3.7c-1.7,1.4-2.9,2.8-3.4,4s-0.6,1.9-0.6,1.9s-0.2-0.8,0.2-2.1
					c0.4-1.3,1.3-3.2,2.9-4.9s3.8-3.4,6.5-4.7c1.3-0.6,2.7-1.2,4.2-1.7s2.9-0.9,4.6-1c3.2-0.2,6.4,0.3,9.2,1.4
					c2.8,1.1,5.1,2.8,6.5,4.9c1.4,2,1.7,4.1,1.6,5.5C317,201.2,316.8,202,316.8,202z"/>
			</g>
		</g>
		<path class="st10" d="M290.6,204.6c0,4.4,3.6,8,8,8s8-3.6,8-8s-3.6-8-8-8S290.6,200.2,290.6,204.6z"/>
		<path class="st6" d="M296.8,200.9c0,2-1.6,3.6-3.6,3.6s-3.6-1.6-3.6-3.6s1.6-3.6,3.6-3.6C295.2,197.4,296.8,199,296.8,200.9z"/>
		<path class="st6" d="M294.4,195.5c0,0.7,0.5,1.2,1.2,1.2s1.2-0.5,1.2-1.2c0-0.6-0.5-1.2-1.2-1.2
			C295,194.3,294.4,194.8,294.4,195.5z"/>
	</g>
	<path class="st4" d="M262.7,239c0,0-2.4,4.1-7.7,4.1s-8.8-1.6-9.6-2.4c-0.8-0.9,5.2-11.4,5.2-11.4s-2.8,7.4-1.5,9.2
		s4.7,1.8,6.3,1.8C260.7,240.2,262.7,239,262.7,239z"/>
	<path class="st11" d="M281.2,265.4c0,12.1-10.9,21.9-24.3,21.9s-24.3-9.8-24.3-21.9H281.2z"/>
	<path class="st12" d="M237.8,279c4.5,5,11.3,8.3,19,8.3c7.7,0,14.6-3.2,19-8.3c0,0-8.4-2.7-19-2.7C246.2,276.3,237.8,279,237.8,279
		z"/>
	<path class="st6" d="M277.7,271c0.5-1.8,0.7-3.7,0.7-5.6h-43.2c0,1.8,0.2,3.6,0.6,5.3c0.2,1,2,2.9,3.8,2.9c8.5,0,32.9,0,34.6,0
		C276.3,273.6,277.5,271.8,277.7,271z"/>
	<path class="st5" d="M320.4,176.2c0,0-13.3-6.2-26.6-4.9c-5.2,0.5-10.6,1-12.7,1.5c-2,0.4-1.2-5.5,0.1-5.8
		c1.4-0.2,7.3-3.5,13.1-3.1C309,164.8,320.4,176.2,320.4,176.2z"/>
	<path class="st5" d="M198.1,176.2c0,0,13.3-6.2,26.6-4.9c5.2,0.5,10.6,1,12.7,1.5c2.1,0.4,1.3-5.5-0.1-5.8
		c-1.4-0.2-7.3-3.5-13.1-3.1C209.5,164.8,198.1,176.2,198.1,176.2z"/>
</g>
</svg>
