<?xml version="1.0" encoding="utf-8"?>
<!-- Generator: Adobe Illustrator 25.0.1, SVG Export Plug-In . SVG Version: 6.00 Build 0)  -->
<svg version="1.1" id="Layer_1" xmlns="http://www.w3.org/2000/svg" xmlns:xlink="http://www.w3.org/1999/xlink" x="0px" y="0px"
	 viewBox="0 0 512 512" style="enable-background:new 0 0 512 512;" xml:space="preserve">
<style type="text/css">
	.st0{fill:#FFC353;}
	.st1{fill:#FFFFFF;}
</style>
<g>
	<circle class="st0" cx="256" cy="256" r="256"/>
	<g>
		<g>
			<g>
				<path class="st1" d="M354.4,136.9H157.7c-15.9,0-28.7,12.9-28.7,28.8v180.8c0,15.9,12.9,28.7,28.7,28.7h196.7
					c15.9,0,28.7-12.9,28.7-28.7V165.6C383.1,149.7,370.2,136.9,354.4,136.9z M293.3,179.6c15.3,0,27.8,12.4,27.8,27.8
					s-12.4,27.8-27.8,27.8c-15.3,0-27.8-12.4-27.8-27.8S277.9,179.6,293.3,179.6z M345.3,348.6H256h-85.4c-7.7,0-11.1-5.5-7.6-12.4
					l47.7-94.4c3.5-6.8,10-7.5,14.7-1.4l47.9,62.6c4.7,6.1,12.8,6.6,18.2,1.2l11.7-11.9c5.4-5.5,13.3-4.8,17.7,1.5l30.4,43.4
					C355.7,343.5,353,348.6,345.3,348.6z"/>
			</g>
		</g>
	</g>
</g>
</svg>
