<?xml version="1.0" encoding="utf-8"?>
<!-- Generator: Adobe Illustrator 25.0.1, SVG Export Plug-In . SVG Version: 6.00 Build 0)  -->
<svg version="1.1" id="Layer_1" xmlns="http://www.w3.org/2000/svg" xmlns:xlink="http://www.w3.org/1999/xlink" x="0px" y="0px"
	 viewBox="0 0 252 512" style="enable-background:new 0 0 252 512;" xml:space="preserve">
<style type="text/css">
	.st0{opacity:5.000000e-02;fill:#2BBC8D;enable-background:new    ;}
	.st1{fill:#1D1D1D;}
	.st2{fill:url(#SVGID_1_);}
	.st3{fill:#FEFFFF;}
	.st4{fill:#2C2C2C;}
	.st5{fill:#2A2A2A;}
	.st6{fill:#0E0E0E;}
	.st7{fill:#1C1C1C;}
	.st8{fill:url(#SVGID_2_);}
	.st9{fill:url(#SVGID_3_);}
	.st10{fill:#F1F1F0;}
	.st11{fill:#F3F4F5;}
	.st12{fill:url(#SVGID_4_);}
	.st13{fill:url(#SVGID_5_);}
	.st14{fill:none;}
	.st15{fill:#333332;}
	.st16{fill:url(#SVGID_6_);}
	.st17{fill:url(#SVGID_7_);}
	.st18{fill:url(#SVGID_8_);}
	.st19{fill:url(#SVGID_9_);}
	.st20{fill:#272727;}
	.st21{fill:url(#SVGID_10_);}
	.st22{fill:#29292D;}
	.st23{fill:url(#SVGID_11_);}
</style>
<g>
	<path class="st0" d="M247.5,20v6.9l0,0v465.2c-2.9,5.5-7.1,10.3-12.3,13.7H16.8c-2-1.3-3.9-2.8-5.6-4.5l0,0
		c-0.4-0.3-0.8-0.7-1.2-1.1c-1.8-1.9-3.4-4.1-4.8-6.7c0-0.1-0.1-0.1-0.1-0.2c-0.2-0.4-0.4-0.8-0.6-1.1V20
		c2.9-5.6,7.1-10.3,12.3-13.7h15.4l0,0l0,0l0,0h202.9c0.4,0.3,0.8,0.6,1.2,0.9c0.2,0.1,0.4,0.3,0.6,0.4c0.4,0.3,0.8,0.7,1.2,1
		c0.9,0.7,1.7,1.5,2.5,2.3l0,0c0.3,0.3,0.7,0.7,1,1c0.4,0.4,0.8,0.9,1.2,1.3c0.3,0.4,0.7,0.8,1,1.2c0.2,0.2,0.3,0.4,0.5,0.7
		s0.4,0.6,0.6,0.9c0.3,0.4,0.5,0.8,0.8,1.2c0.2,0.2,0.3,0.5,0.5,0.8C246.7,18.5,247.1,19.2,247.5,20C247.5,19.9,247.5,20,247.5,20z"
		/>
	<g>
		<path class="st1" d="M251,30.2L251,30.2L251,30.2L251,30.2c0-0.1,0-0.1,0-0.1c-0.1-0.5-0.2-0.9-0.3-1.4c-0.1-0.4-0.2-0.7-0.3-1.1
			c-0.1-0.2-0.1-0.5-0.2-0.7c-0.1-0.3-0.2-0.6-0.3-0.9c-0.1-0.4-0.3-0.9-0.4-1.3c-0.1-0.4-0.3-0.8-0.4-1.1c0-0.1-0.1-0.2-0.1-0.3
			c-0.2-0.4-0.3-0.8-0.5-1.2c0-0.1-0.1-0.3-0.2-0.4c-0.1-0.3-0.3-0.6-0.4-0.9l0,0c-0.1-0.2-0.2-0.5-0.4-0.7l0,0l0,0
			c-0.4-0.7-0.7-1.4-1.2-2.1c-0.2-0.3-0.3-0.5-0.5-0.8c-0.3-0.4-0.5-0.8-0.8-1.2c-0.2-0.3-0.4-0.6-0.6-0.9c-0.2-0.2-0.3-0.5-0.5-0.7
			c-0.3-0.4-0.7-0.8-1-1.2c-0.4-0.4-0.8-0.9-1.2-1.3c-0.3-0.3-0.6-0.7-1-1l0,0c-0.8-0.8-1.7-1.6-2.5-2.3c-0.4-0.3-0.8-0.7-1.2-1
			c-0.2-0.1-0.4-0.3-0.6-0.4c-0.4-0.3-0.8-0.6-1.2-0.9l0,0c-0.1-0.1-0.2-0.1-0.2-0.2c-0.7-0.5-1.4-0.9-2.1-1.3l0,0
			c-0.7-0.4-1.5-0.8-2.2-1.2c-0.4-0.2-0.8-0.4-1.2-0.5c-0.4-0.2-0.8-0.3-1.2-0.5s-0.8-0.3-1.2-0.4c-0.4-0.1-0.8-0.3-1.2-0.4
			c-0.6-0.2-1.2-0.4-1.7-0.5c-0.6-0.2-1.2-0.3-1.8-0.4c-0.4-0.1-0.8-0.2-1.2-0.2c-0.4-0.1-0.8-0.1-1.3-0.2s-1.1-0.2-1.6-0.2
			c-0.3,0-0.6-0.1-0.9-0.1c-0.2,0-0.3,0-0.4,0c-0.1,0-0.3,0-0.4,0c-0.3,0-0.6,0-0.9,0c-0.3,0-0.6,0-0.9,0H36.9h-0.1
			c-0.1,0-0.2,0-0.3,0c-0.3,0-0.6,0-0.9,0c-0.1,0-0.1,0-0.2,0c-0.4,0-0.9,0.1-1.3,0.1c-0.4,0-0.8,0.1-1.2,0.1l0,0
			c-0.2,0-0.3,0-0.5,0.1C27,1.1,21.9,3.2,17.6,6.2c-4.4,3.1-8,7.2-10.6,12l0,0l0,0c0,0,0,0.1-0.1,0.1c-0.8,1.4-1.4,3-2,4.5
			c0.2-0.5,0.5-0.9,0.7-1.4c0.2-0.3,0.4-0.7,0.6-1c0,0,0-0.1,0.1-0.1c0.2-0.3,0.4-0.6,0.6-0.9c0.3-0.5,0.6-0.9,0.9-1.3
			c0.2-0.2,0.4-0.5,0.5-0.7c0.1-0.2,0.2-0.3,0.3-0.4c0.2-0.3,0.5-0.6,0.7-0.9c0.3-0.4,0.6-0.7,0.9-1.1c0.2-0.2,0.3-0.4,0.5-0.5
			c0.2-0.2,0.3-0.4,0.5-0.5c0.2-0.3,0.5-0.5,0.8-0.8s0.5-0.5,0.8-0.8c0.2-0.2,0.5-0.4,0.7-0.6c0.1-0.1,0.1-0.1,0.2-0.2
			c0.1-0.1,0.2-0.2,0.3-0.3s0.3-0.2,0.4-0.3c0.1-0.1,0.2-0.1,0.2-0.2c0.2-0.2,0.4-0.3,0.6-0.5c0.3-0.2,0.6-0.5,0.9-0.7
			c1.4-1,2.9-2,4.5-2.8c0.2-0.1,0.3-0.2,0.5-0.3c0.1-0.1,0.3-0.1,0.4-0.2c0,0,0,0,0.1,0h0.1l0,0c0,0,0,0,0.1,0
			c0.1-0.1,0.3-0.1,0.4-0.2S22.4,6,22.4,6c0.3-0.1,0.5-0.2,0.8-0.4c0.4-0.2,0.9-0.4,1.3-0.5C24.7,5,25,4.9,25.2,4.8l0,0l0,0
			c0.2-0.1,0.4-0.1,0.6-0.2c0.8-0.3,1.6-0.5,2.4-0.7c0.1,0,0.3-0.1,0.4-0.1s0.3-0.1,0.4-0.1c0.3-0.1,0.5-0.1,0.8-0.2c0,0,0,0,0.1,0
			c0.2,0,0.4-0.1,0.6-0.1s0.4-0.1,0.6-0.1s0.4-0.1,0.6-0.1C32,3,32.1,3,32.2,3c0.1,0,0.2,0,0.3-0.1c0.1,0,0.2,0,0.3,0
			c0.2,0,0.4-0.1,0.6-0.1c0.3,0,0.6-0.1,0.9-0.1c0.2,0,0.4,0,0.6,0c0.2,0,0.4,0,0.6,0c0.2,0,0.4,0,0.6,0c0.4,0,0.8,0,1.2,0h177.3
			c0.3,0,0.6,0,0.9,0h0.1c0.1,0,0.1,0,0.2,0h0.1h0.1c0.1,0,0.2,0,0.3,0c0.2,0,0.3,0,0.5,0h0.1c0.1,0,0.2,0,0.3,0s0.2,0,0.2,0
			c0.1,0,0.1,0,0.2,0c0.1,0,0.2,0,0.3,0s0.2,0,0.3,0s0.1,0,0.2,0c0.1,0,0.1,0,0.2,0c0.1,0,0.2,0,0.4,0c0.1,0,0.2,0,0.3,0.1
			c0.4,0,0.7,0.1,1.1,0.2c0.7,0.1,1.4,0.3,2.1,0.4c0.4,0.1,0.8,0.2,1.1,0.3c0.1,0,0.2,0,0.2,0.1c0,0,0,0,0.1,0c0,0,0,0,0.1,0l0,0
			c0.2,0.1,0.5,0.1,0.7,0.2c0.3,0.1,0.5,0.2,0.8,0.3c0.2,0.1,0.3,0.1,0.5,0.2c0.3,0.1,0.5,0.2,0.8,0.3h0.1c0.3,0.1,0.6,0.2,0.9,0.4
			c0.3,0.1,0.7,0.3,1,0.4l0,0c0.3,0.1,0.7,0.3,1,0.5c0,0,0,0,0.1,0l0,0l0,0c0,0,0,0,0.1,0c0,0,0.1,0,0.1,0.1l0,0
			c0.2,0.1,0.3,0.2,0.4,0.2c0.1,0,0.1,0.1,0.2,0.1c0,0,0.1,0,0.1,0.1l0,0c0.1,0,0.2,0.1,0.2,0.1c0.1,0,0.2,0.1,0.2,0.1
			c0.5,0.3,0.9,0.5,1.4,0.8c0,0,0,0,0.1,0c0.2,0.1,0.4,0.3,0.6,0.4c0.1,0.1,0.2,0.1,0.3,0.2c0.1,0.1,0.2,0.1,0.3,0.2h0.1
			c0.2,0.1,0.4,0.2,0.5,0.4c0.1,0,0.1,0.1,0.2,0.1c0.2,0.2,0.5,0.3,0.7,0.5l0,0c0.3,0.2,0.6,0.4,0.9,0.7c0.3,0.3,0.7,0.6,1,0.8
			c0.1,0.1,0.2,0.2,0.3,0.2c0.1,0.1,0.2,0.2,0.3,0.2s0.1,0.1,0.2,0.1c0.2,0.2,0.4,0.3,0.5,0.5c0.1,0.1,0.2,0.2,0.2,0.2
			c0.2,0.2,0.4,0.4,0.6,0.6l0,0c0.2,0.2,0.4,0.4,0.6,0.6l0,0c0.2,0.2,0.3,0.4,0.5,0.5c0,0,0,0,0,0.1c0.2,0.2,0.4,0.4,0.5,0.6
			c0,0,0,0.1,0.1,0.1l0.1,0.1c0.1,0.1,0.1,0.2,0.2,0.2c0,0,0,0,0.1,0.1s0.1,0.1,0.1,0.2c0.1,0.1,0.2,0.2,0.2,0.3
			c0.2,0.3,0.4,0.6,0.7,0.9c0.2,0.3,0.4,0.5,0.5,0.8c0.2,0.2,0.3,0.4,0.4,0.7c0.1,0.2,0.3,0.4,0.4,0.7c0.3,0.5,0.6,1,0.9,1.5
			c0.1,0.2,0.2,0.3,0.3,0.5c0,0,0,0.1,0.1,0.1v0.1c0,0,0,0.1,0.1,0.1c0,0,0,0,0,0.1c0.1,0.2,0.2,0.5,0.3,0.7l0,0l0,0
			c0.1,0.2,0.2,0.5,0.3,0.7c0.1,0.3,0.2,0.5,0.3,0.8c0.1,0.2,0.1,0.3,0.2,0.5c0,0.1,0.1,0.2,0.1,0.3l0,0c0,0.1,0.1,0.1,0.1,0.2
			c0.1,0.2,0.1,0.4,0.2,0.6l0,0c0.1,0.4,0.3,0.7,0.4,1.1l0,0c0,0.1,0,0.1,0.1,0.1c0.1,0.2,0.1,0.4,0.2,0.5l0,0l0,0
			c0.1,0.3,0.2,0.6,0.3,1c0.1,0.2,0.1,0.4,0.2,0.6c0.1,0.3,0.2,0.7,0.3,1l0,0c0.1,0.3,0.1,0.5,0.2,0.8c0,0.1,0,0.1,0,0.2
			c0,0,0,0,0,0.1c0,0.2,0.1,0.4,0.1,0.6v0.1c0,0.1,0,0.1,0,0.1c0,0.1,0,0.2,0,0.2c0,0.1,0.1,0.2,0.1,0.4c0,0.2,0.1,0.5,0.1,0.7
			c0,0.4,0.1,0.7,0.1,1.1v0.1c0,0.3,0.1,0.7,0.1,1c0,0.4,0,0.7,0.1,1.1s0,0.7,0,1.1v438c0,0.4,0,0.9,0,1.3c0,0.2,0,0.4,0,0.6
			s0,0.3,0,0.5c0,0.1,0,0.1,0,0.2l0,0l0,0v0.1c0,0.1,0,0.2,0,0.3c0,0.1,0,0.1,0,0.2c0,0.2,0,0.3-0.1,0.5l0,0c0,0.3-0.1,0.7-0.1,1
			c0,0.2-0.1,0.4-0.1,0.5s0,0.2,0,0.2c0,0.1,0,0.3-0.1,0.4v0.2c0,0.1,0,0.2,0,0.2l0,0c0,0.1,0,0.1,0,0.2v0.1l0,0l0,0l0,0
			c0,0,0,0,0,0.1v0.1c0,0,0,0,0,0.1l0,0l0,0c0,0.1,0,0.1,0,0.1c0,0.1-0.1,0.3-0.1,0.4s0,0.2-0.1,0.3c0,0,0,0,0,0.1l0,0l0,0
			c0,0,0,0,0,0.1l0,0v0.1c0,0.1-0.1,0.2-0.1,0.3l0,0l0,0c0,0.1-0.1,0.2-0.1,0.4c0,0.1,0,0.2-0.1,0.3v0.1v0.1l0,0v0.1c0,0,0,0,0,0.1
			v0.1l0,0c0,0.1,0,0.1-0.1,0.1l0,0l0,0c0,0,0,0,0,0.1v0.1l0,0l0,0l0,0v0.1c0,0.1-0.1,0.2-0.1,0.3v0.1c0,0.1,0,0.1-0.1,0.2v0.1l0,0
			c0,0.1-0.1,0.2-0.1,0.2v0.1c0,0.1,0,0.1-0.1,0.1c0,0,0,0,0,0.1l0,0l0,0l0,0l0,0c0,0.1,0,0.1-0.1,0.2l0,0c0,0,0,0,0,0.1l0,0l0,0
			l0,0l0,0l0,0l0,0c0,0.1-0.1,0.2-0.1,0.3c0,0,0,0.1-0.1,0.1c0,0.1-0.1,0.3-0.1,0.4l0,0l0,0l0,0l0,0l0,0l0,0l0,0c0,0,0,0,0,0.1l0,0
			l0,0l0,0c0,0,0,0,0,0.1l0,0l0,0l0,0l0,0l0,0l0,0c0,0.1-0.1,0.2-0.1,0.2l0,0l0,0l0,0l0,0c0,0,0,0,0,0.1l0,0v0.1l0,0l0,0l0,0l0,0
			l0,0l0,0l0,0c0,0,0,0,0,0.1v0.1v0.1l0,0l0,0l0,0l0,0l0,0l0,0c0,0,0,0,0,0.1s0,0.1-0.1,0.1l0,0l0,0c0,0.1,0,0.1-0.1,0.1
			c-0.2,0.4-0.4,0.8-0.6,1.3c-0.2,0.4-0.4,0.8-0.7,1.2c-0.2,0.4-0.5,0.8-0.7,1.2c-3.4,5.5-8.4,10-14.3,12.9
			c-3.5,1.7-7.4,2.8-11.5,3.2c-0.6,0.1-1.2,0.1-1.8,0.2c-0.6,0-1.1,0.2-1.7,0.2H37.3c-0.6,0-1.2,0-1.8,0c-0.3,0-0.7,0-1-0.1
			c-0.3,0-0.6-0.1-0.8-0.1c-0.1,0-0.1,0-0.2,0c-0.1,0-0.2,0-0.2,0l0,0l0,0c-0.1,0-0.1,0-0.2,0c-0.2,0-0.4-0.1-0.6-0.1
			c-0.7-0.1-1.4-0.2-2-0.3c-0.5-0.1-1-0.2-1.5-0.3c-0.3-0.1-0.5-0.1-0.8-0.2c-0.2-0.1-0.5-0.1-0.7-0.2c0,0,0,0-0.1,0
			c-0.2,0-0.4-0.1-0.5-0.2c-0.1,0-0.2,0-0.2-0.1c-0.2-0.1-0.4-0.1-0.7-0.2c0,0,0,0-0.1,0s-0.3-0.1-0.4-0.2h-0.1
			c-0.3-0.1-0.7-0.2-1-0.3c-0.5-0.2-1-0.4-1.4-0.6c-0.5-0.2-0.9-0.4-1.4-0.6c-0.1,0-0.1-0.1-0.2-0.1c-0.8-0.4-1.5-0.8-2.3-1.2
			c-0.4-0.2-0.7-0.4-1.1-0.6c-1-0.6-1.9-1.2-2.8-1.9c-0.1-0.1-0.3-0.2-0.4-0.3c-0.1,0-0.1-0.1-0.2-0.1c-0.2-0.2-0.5-0.4-0.7-0.6
			l-0.1-0.1c-0.3-0.3-0.7-0.5-1-0.8l-0.1-0.1c0,0,0,0-0.1,0c-3.3-3-6.1-6.5-8.2-10.5c-2.7-5.1-4.1-10.9-4.1-17v2.8
			c0,0.3,0,0.6,0,0.9c0,0.4,0,0.8,0.1,1.2c0.2,2.8,0.7,5.6,1.4,8.2l0,0c0,0.1,0,0.1,0.1,0.2c0,0,0,0.1,0.1,0.1
			c0.7,2.2,1.5,4.2,2.5,6.2c0.2,0.4,0.4,0.8,0.6,1.1c0,0.1,0.1,0.1,0.1,0.2l0,0c1.6,2.8,3.6,5.4,5.9,7.7l0.1,0.1l0,0
			c1.7,1.7,3.6,3.2,5.6,4.5c5.9,3.9,12.9,6.2,20.5,6.2h177.3c7.6,0,14.7-2.3,20.5-6.2c5.2-3.4,9.4-8.2,12.3-13.7
			c2.7-5.1,4.2-10.9,4.2-17V37C251.7,34.7,251.4,32.4,251,30.2z"/>
		
			<linearGradient id="SVGID_1_" gradientUnits="userSpaceOnUse" x1="0.8986" y1="244.4" x2="34.5471" y2="244.4" gradientTransform="matrix(1 0 0 -1 0 512)">
			<stop  offset="0" style="stop-color:#FFFFFF"/>
			<stop  offset="1" style="stop-color:#B5B5B5"/>
			<stop  offset="1" style="stop-color:#0E0E0E"/>
		</linearGradient>
		<path class="st2" d="M34.6,509.3c-4.6-0.3-9-1.5-13-3.4c-3.2-1.5-6.1-3.4-8.8-5.8c-6.7-6.4-12-16.2-11.9-25.2v-12.2h2v-3.2h-2
			V52.3h2V49h-2v-9.4c0-2.2,0.2-4.3,0.6-6.4c0,0,0.7-1.8,2-4.5c0.4-0.9,0.9-1.8,1.4-2.8c0,0.1,0,0.1-0.1,0.2
			c-0.1,0.4-0.2,0.7-0.3,1.1c-0.1,0.4-0.2,0.8-0.3,1.2c-0.1,0.4-0.2,0.8-0.3,1.2c-0.1,0.4-0.2,0.8-0.2,1.2c-0.1,0.4-0.1,0.8-0.2,1.1
			c-0.1,0.4-0.1,0.7-0.1,1.1c0,0.2,0,0.4-0.1,0.5c0,0.3-0.1,0.6-0.1,0.9c0,0.3,0,0.5-0.1,0.8c0,0.3,0,0.5,0,0.8s0,0.7,0,1v438
			C3,493.1,16.9,507.9,34.6,509.3z"/>
		<path class="st3" d="M22.4,6c-0.4,0.2-0.7,0.4-1.1,0.5C21,6.7,20.7,6.8,20.5,7c-0.1,0.1-0.3,0.1-0.4,0.2c-0.2,0.1-0.4,0.2-0.6,0.4
			c-0.2,0.1-0.3,0.2-0.5,0.3c-0.3,0.2-0.5,0.3-0.7,0.5c-0.7,0.4-1.3,0.9-1.9,1.4c-0.7,0.5-1.3,1.1-2,1.6c-0.2,0.2-0.5,0.4-0.7,0.7
			c-0.3,0.3-0.6,0.6-0.9,0.9c-0.3,0.3-0.5,0.5-0.8,0.8s-0.5,0.6-0.8,0.9c-0.2,0.3-0.4,0.5-0.7,0.8c-0.1,0.1-0.2,0.3-0.3,0.4
			c-0.4,0.5-0.8,1-1.1,1.6c-1.4,2-2.6,4.1-3.5,6.4c-0.1,0.3-0.3,0.7-0.4,1c-0.1,0.4-0.3,0.7-0.4,1.1l0,0c-0.5,1-1,1.9-1.4,2.8
			c0.3-2,0.8-3.9,1.5-5.8l0,0c2.7-5.3,6.6-9.9,11.5-13.3c1.4-1,2.9-2,4.5-2.8c0.3-0.2,0.7-0.3,1-0.5c0,0,0.1,0,0.1-0.1
			C22.2,6.1,22.3,6.1,22.4,6z"/>
		<path class="st4" d="M20.5,505.4c-1.8-0.7-3.4-1.6-4.8-2.5l0,0c-0.1-0.1-0.3-0.2-0.4-0.2l0,0c-2.5-1.7-4.6-3.6-6.4-5.5
			c-0.3-0.4-0.6-0.7-0.9-1.1c-2.2-2.6-3.7-5.2-4.7-7.3c-0.6-1.3-1-2.3-1.3-3.1c0-0.1-0.1-0.1-0.1-0.2c-0.2-0.7-0.3-1-0.3-1
			c-0.6-2.3-1-4.7-1.1-7.1c0-0.4,0-0.8-0.1-1.2c0-0.3,0-0.6,0-0.9v-438c0-3.6,0.5-7.1,1.5-10.4c0.1-0.4,0.2-0.7,0.3-1.1
			C1.4,28.3,1,31,0.9,33.9c0,0.3,0,0.7,0,1v438.4c0,0.2,0,0.5,0,0.7s0,0.5,0,0.7v0.2c0,9,5.2,18.9,11.9,25.2
			C15.3,502.4,17.9,504.2,20.5,505.4z"/>
		<path class="st5" d="M251,30.2L251,30.2c-0.8-3.1-2-6-3.5-8.7s-3.3-5.1-5.4-7.3c0-0.1-0.1-0.1-0.1-0.1c-1-1-2-2-3.1-2.9l-0.1-0.1
			l0,0c-1.9-1.5-3.9-2.9-6.1-4c0,0,0,0-0.1,0c-0.5-0.3-1-0.5-1.5-0.8c-2.3-1.1-4.8-2-7.4-2.6c-1.6-0.4-3.3-0.7-5.1-0.8
			c-0.1,0-0.1,0-0.2,0c-0.1,0-0.1,0-0.2,0c-0.1,0-0.2,0-0.3,0s-0.2,0-0.3,0s-0.1,0-0.2,0c-0.1,0-0.2,0-0.2,0c-0.1,0-0.2,0-0.3,0
			h-0.1c-0.1,0-0.2,0-0.2,0c-0.1,0-0.2,0-0.2,0c-0.1,0-0.2,0-0.3,0H216h-0.1h-0.1h-0.3c-0.3,0-0.6,0-0.9,0H37.3c-0.4,0-0.8,0-1.2,0
			c-0.2,0-0.4,0-0.6,0c-0.2,0-0.4,0-0.6,0c-0.2,0-0.4,0-0.6,0.1c-0.3,0-0.6,0.1-0.9,0.1c-0.2,0-0.4,0-0.6,0.1c-0.1,0-0.2,0-0.3,0
			s-0.2,0-0.3,0s-0.2,0-0.3,0.1c-0.2,0-0.4,0.1-0.6,0.1s-0.4,0.1-0.6,0.1s-0.4,0.1-0.6,0.1H30c-0.3,0.1-0.5,0.1-0.8,0.2
			c-0.1,0-0.3,0.1-0.4,0.1c-0.2,0-0.3,0.1-0.4,0.1c-0.8,0.2-1.6,0.5-2.4,0.7c-0.1,0-0.3,0.1-0.4,0.1s-0.1,0-0.2,0.1l0,0
			c-0.1-0.1-0.4,0-0.6,0.1c-0.4,0.2-0.9,0.3-1.3,0.5c-0.3,0.1-0.5,0.2-0.8,0.4c-0.1,0-0.2,0.1-0.2,0.1c-0.1,0.1-0.3,0.1-0.4,0.2l0,0
			c0,0,0,0-0.1,0s-0.1,0.1-0.2,0.1l0,0c-0.1,0.1-0.2,0.1-0.3,0.1c-0.2,0.1-0.3,0.2-0.5,0.3c-1.6,0.8-3.1,1.7-4.5,2.8
			c-0.3,0.2-0.6,0.4-0.9,0.7c-0.2,0.2-0.4,0.3-0.6,0.5c-0.1,0.1-0.2,0.1-0.2,0.2L14.7,11c-0.1,0.1-0.2,0.2-0.3,0.3s-0.2,0.2-0.3,0.3
			s-0.1,0.1-0.2,0.2c-0.2,0.2-0.5,0.4-0.7,0.6c-0.3,0.2-0.5,0.5-0.8,0.8s-0.5,0.5-0.8,0.8c-0.7,0.7-1.3,1.4-1.9,2.1
			C9.4,16.4,9.2,16.7,9,17c-0.6,0.8-1.2,1.6-1.8,2.5c-0.2,0.3-0.4,0.6-0.6,0.9c0,0,0,0.1-0.1,0.1c-0.2,0.3-0.4,0.7-0.6,1
			c-0.3,0.4-0.5,0.9-0.7,1.4l0,0l0,0c-0.1,0.3-0.3,0.6-0.4,0.9C3.4,26,2.6,28.4,2,30.9c-0.1,0.2-0.1,0.4-0.1,0.5
			c-0.1,0.3-0.1,0.6-0.2,0.9s-0.1,0.6-0.2,0.9c-0.4,2.1-0.6,4.2-0.6,6.4v435.1c0-0.2,0-0.5,0-0.7s0-0.5,0-0.7V34.9c0-0.3,0-0.7,0-1
			C1,31.4,1.3,29,1.8,26.8C1.9,26.4,2,26,2.1,25.5c0.6-1.9,1.4-3.8,2.3-5.6c2.9-5.6,7.1-10.3,12.3-13.7c2.8-1.9,5.8-3.4,9.1-4.4
			c2.1-0.7,4.3-1.2,6.6-1.5c0.2,0,0.3,0,0.5-0.1l0,0c0.4-0.1,0.8-0.1,1.2-0.1S34.9,0,35.3,0c0.1,0,0.1,0,0.1,0c0.1,0,0.1,0,0.2,0
			c0.3,0,0.6,0,0.9,0c0.1,0,0.2,0,0.3,0h0.1c0.1,0,0.3,0,0.4,0h177.3c0.3,0,0.6,0,0.9,0c0.3,0,0.6,0,0.9,0c0.1,0,0.3,0,0.4,0
			c0.2,0,0.3,0,0.4,0c0.3,0,0.6,0.1,0.9,0.1c0.1,0,0.2,0,0.4,0.1c0.4,0,0.8,0.1,1.3,0.2c0.4,0.1,0.8,0.1,1.3,0.2
			c0.4,0.1,0.8,0.1,1.2,0.2c0.6,0.1,1.2,0.3,1.8,0.4c0.6,0.2,1.2,0.3,1.7,0.5c0.4,0.1,0.8,0.3,1.2,0.4s0.8,0.3,1.2,0.4
			c0.4,0.2,0.8,0.3,1.2,0.5s0.8,0.3,1.2,0.5c0.8,0.4,1.5,0.7,2.2,1.2l0,0c0.7,0.4,1.4,0.8,2.1,1.3c0.1,0,0.1,0.1,0.2,0.2l0,0
			c0.4,0.3,0.8,0.6,1.2,0.9c0.2,0.1,0.4,0.3,0.6,0.4c0.4,0.3,0.8,0.7,1.2,1c0.9,0.7,1.7,1.5,2.5,2.3c0.3,0.3,0.7,0.7,1,1
			c0.4,0.4,0.8,0.9,1.2,1.3c0.3,0.4,0.7,0.8,1,1.2c0.2,0.2,0.3,0.4,0.5,0.7s0.4,0.6,0.6,0.9c0.3,0.4,0.5,0.8,0.8,1.2
			c0.2,0.2,0.3,0.5,0.5,0.8c0.4,0.7,0.8,1.4,1.2,2.1l0,0l0,0c0.1,0.2,0.3,0.5,0.4,0.7l0,0c0.2,0.3,0.3,0.6,0.4,0.9
			c0.1,0.1,0.1,0.2,0.2,0.4c0.2,0.4,0.4,0.8,0.5,1.2c0.1,0.1,0.1,0.2,0.1,0.3c0.2,0.4,0.3,0.8,0.4,1.1c0.2,0.4,0.3,0.9,0.4,1.3
			c0.1,0.3,0.2,0.6,0.3,0.9c0.1,0.2,0.1,0.5,0.2,0.7c0.1,0.4,0.2,0.7,0.3,1.1s0.2,0.9,0.3,1.4C251,30.1,251,30.2,251,30.2
			S251,30.3,251,30.2C251,30.3,251,30.3,251,30.2L251,30.2z"/>
		<path class="st6" d="M237.2,478.1v0.1C237.2,478.2,237.2,478.2,237.2,478.1V478C237.2,478.1,237.2,478.1,237.2,478.1z M245.8,35.8
			c0-0.1,0-0.3,0-0.4c0-0.4-0.1-0.8-0.1-1.2l0,0c0-0.4-0.1-0.7-0.1-1.1c0-0.2,0-0.3-0.1-0.5c-0.1-0.4-0.1-0.7-0.2-1.1
			c0-0.1,0-0.1,0-0.2c-0.1-0.3-0.1-0.6-0.2-0.9c0,0,0,0,0-0.1c-0.1-0.3-0.1-0.6-0.2-0.9c0-0.1,0-0.2-0.1-0.2c0-0.2-0.1-0.3-0.1-0.5
			c-0.1-0.4-0.3-0.9-0.4-1.3c-0.1-0.2-0.1-0.4-0.2-0.6c-0.1-0.2-0.2-0.4-0.2-0.6v-0.1c-0.1-0.4-0.3-0.8-0.5-1.1
			c-0.1-0.3-0.3-0.7-0.4-1c-0.2-0.4-0.3-0.7-0.5-1.1c-0.1-0.1-0.1-0.2-0.2-0.3c-0.1-0.1-0.1-0.2-0.2-0.3c-0.1-0.2-0.2-0.4-0.3-0.5
			c-0.1-0.2-0.2-0.4-0.3-0.5c-0.2-0.3-0.4-0.7-0.7-1c-0.1-0.2-0.2-0.3-0.3-0.5s-0.3-0.4-0.4-0.6c-0.1-0.2-0.3-0.4-0.4-0.6
			c-0.1-0.2-0.2-0.3-0.4-0.5l-0.1-0.1c-0.1-0.1-0.2-0.3-0.3-0.4c0-0.1-0.1-0.1-0.1-0.2c-0.1-0.1-0.2-0.2-0.2-0.3l0,0
			c-0.3-0.3-0.6-0.7-0.9-1c-0.1-0.1-0.2-0.2-0.3-0.3c-0.2-0.2-0.4-0.4-0.6-0.6c-0.3-0.3-0.7-0.6-1-1c-0.2-0.2-0.5-0.4-0.8-0.7
			c-0.3-0.2-0.5-0.4-0.8-0.6c-0.1-0.1-0.3-0.2-0.4-0.3c-0.1-0.1-0.3-0.2-0.4-0.3l0,0c-0.3-0.2-0.5-0.4-0.8-0.6
			c-0.3-0.2-0.7-0.5-1-0.7h-0.1c-0.9-0.5-1.7-1-2.6-1.5c-0.3-0.2-0.6-0.3-0.9-0.4c-0.3-0.1-0.6-0.3-0.9-0.4
			c-0.3-0.1-0.6-0.3-0.9-0.4s-0.6-0.2-1-0.4c-0.3-0.1-0.7-0.2-1-0.3c-0.6-0.2-1.2-0.4-1.8-0.5c-0.6-0.2-1.2-0.3-1.9-0.4h-0.1h-0.1
			l0,0h-0.1c0,0,0,0-0.1,0h-0.2h-0.1h-0.1h-0.1c-0.1,0-0.1,0-0.2,0c-0.1,0-0.2,0-0.3,0l0,0H219h-0.1l0,0c-0.1,0-0.1,0-0.2,0l0,0
			c0,0,0,0-0.1,0c0,0,0,0-0.1,0l0,0c-0.1,0-0.1,0-0.2,0l0,0l0,0c-0.1,0-0.3,0-0.4,0l0,0l0,0c0,0,0,0-0.1,0c0,0,0,0-0.1,0h-0.1
			c-0.1,0-0.1,0-0.2,0l0,0l0,0l0,0c0,0,0,0-0.1,0c0,0,0,0-0.1,0l0,0c-0.1,0-0.1,0-0.2,0l0,0c0,0,0,0-0.1,0h-0.1h-0.1
			c-0.1,0-0.2,0-0.4,0h-0.1H216c-0.1,0-0.2,0-0.4,0h-0.1h-0.1c-0.1,0-0.3,0-0.4,0c-0.1,0-0.3,0-0.4,0H37.3c-0.3,0-0.7,0-1,0
			c-0.7,0-1.3,0.1-2,0.1c-0.2,0-0.3,0-0.5,0.1c-0.1,0-0.2,0-0.4,0.1h-0.1c-0.2,0-0.4,0.1-0.6,0.1c-0.1,0-0.3,0-0.4,0.1l0,0h-0.1l0,0
			l0,0l0,0l0,0c-0.2,0-0.4,0.1-0.5,0.1l0,0l0,0l0,0c-0.1,0-0.2,0.1-0.4,0.1c-0.3,0.1-0.5,0.1-0.8,0.2s-0.6,0.1-0.9,0.2
			S29.1,7.9,28.8,8c-0.1-1-0.2-1-0.3-1s-0.2,0.1-0.2,0.1c-0.1,0-0.2,0.1-0.2,0.1c-0.1,0-0.1,0-0.1,0.1c-0.1,0-0.2,0.1-0.3,0.1l0,0
			c-0.3,0.1-0.6,0.2-0.9,0.3C26.5,7.8,26.2,7.9,26,8c0,0-0.1,0-0.1,0.1c-0.3,0.1-0.6,0.2-0.9,0.4c-0.3,0.1-0.6,0.3-0.9,0.4
			c-0.3,0.1-0.5,0.2-0.8,0.4h-0.1l0,0l0,0c-0.2,0.1-0.4,0.2-0.7,0.3l0,0c-0.1,0.1-0.3,0.1-0.4,0.2l0,0c-0.1,0-0.2,0.1-0.2,0.1
			L21.8,10c-0.1,0-0.2,0.1-0.2,0.1c-0.1,0-0.2,0.1-0.3,0.2c-0.1,0.1-0.2,0.1-0.3,0.2c-0.1,0.1-0.2,0.1-0.3,0.2c0,0-0.1,0-0.1,0.1
			l0,0c0,0-0.1,0-0.1,0.1c-0.2,0.1-0.4,0.2-0.5,0.4c0,0-0.1,0-0.1,0.1c-0.2,0.1-0.3,0.2-0.5,0.3l0,0c-0.1,0.1-0.2,0.1-0.3,0.2l0,0
			l0,0c-0.2,0.2-0.5,0.3-0.7,0.5c-0.5,0.4-0.9,0.7-1.4,1.1l0,0c-0.2,0.2-0.4,0.4-0.7,0.6c-0.2,0.2-0.4,0.4-0.7,0.6l0,0
			c-0.2,0.2-0.4,0.3-0.5,0.5c-0.1,0.1-0.2,0.2-0.3,0.3l-0.1,0.1c-0.3,0.3-0.6,0.7-0.9,1c-0.2,0.2-0.4,0.5-0.6,0.7
			c0,0.1-0.1,0.1-0.1,0.2c-0.1,0.2-0.3,0.3-0.4,0.5l0,0c-0.2,0.3-0.5,0.6-0.7,0.9c-0.3,0.4-0.6,0.9-0.9,1.3
			c-0.2,0.4-0.4,0.7-0.7,1.1c0,0.1-0.1,0.1-0.1,0.2c-0.2,0.3-0.4,0.7-0.5,1c0,0,0,0.1-0.1,0.1c0,0.1-0.1,0.1-0.1,0.2
			c-0.2,0.4-0.4,0.9-0.7,1.4c-0.1,0.3-0.3,0.6-0.4,0.9c-0.1,0.3-0.2,0.6-0.4,0.9c-0.1,0.3-0.2,0.6-0.3,0.9c-0.1,0.2-0.2,0.4-0.2,0.7
			c-0.1,0.4-0.2,0.7-0.3,1.1c-0.1,0.2-0.1,0.4-0.2,0.6C7,29.6,7,29.8,6.9,30.1c-0.1,0.2-0.1,0.4-0.2,0.7c0,0.3-0.1,0.5-0.1,0.8
			c0,0.1,0,0.1,0,0.2c0,0.2-0.1,0.4-0.1,0.7c0,0.2-0.1,0.5-0.1,0.8c0,0.1,0,0.1,0,0.2c0,0.3-0.1,0.6-0.1,0.9c0,0.2,0,0.3,0,0.5
			c0,0.1,0,0.2,0,0.3c-0.1,0.7-0.1,1.4-0.1,2.1v438c0,0.2,0,0.3,0,0.5v0.1c0,0.1,0,0.2,0,0.3c0,0.2,0,0.4,0,0.6c0,0.3,0,0.6,0.1,0.8
			c0,0.2,0,0.5,0.1,0.7c0,0.1,0,0.1,0,0.2c0,0.2,0.1,0.5,0.1,0.7l0,0c0,0.3,0.1,0.7,0.1,1s0.1,0.6,0.2,1c0,0.1,0.1,0.3,0.1,0.4
			c0.1,0.3,0.1,0.5,0.2,0.8c0,0.1,0,0.1,0,0.2c0.1,0.3,0.2,0.7,0.3,1c0,0.1,0,0.1,0.1,0.2c0.1,0.3,0.2,0.6,0.3,0.9
			c0.1,0.3,0.2,0.7,0.3,1c0.1,0.3,0.2,0.6,0.3,0.9c0.2,0.6,0.5,1.2,0.8,1.9c0.1,0.3,0.3,0.6,0.4,0.9l0,0c0.2,0.3,0.3,0.7,0.5,1
			c0,0,0,0,0,0.1c0.2,0.3,0.4,0.7,0.6,1c0.2,0.3,0.3,0.6,0.5,0.9s0.5,0.7,0.7,1c0.1,0.2,0.2,0.3,0.3,0.5c0.1,0.1,0.2,0.2,0.2,0.3
			c0.1,0.1,0.1,0.1,0.1,0.2s0.1,0.1,0.1,0.2c0.2,0.2,0.3,0.4,0.5,0.6c0,0.1,0.1,0.1,0.1,0.2c0.2,0.3,0.5,0.6,0.8,0.9
			c0.2,0.3,0.5,0.5,0.7,0.8l0.1,0.1l0,0l0,0c0.1,0.1,0.1,0.1,0.2,0.2c0.3,0.3,0.6,0.6,0.9,0.9c0.1,0.1,0.1,0.1,0.2,0.1
			c0.3,0.3,0.6,0.6,1,0.9c0.1,0.1,0.2,0.2,0.3,0.3c0.3,0.2,0.5,0.5,0.8,0.7c0,0,0.1,0,0.1,0.1c0.3,0.2,0.6,0.5,0.9,0.7
			c0.2,0.1,0.3,0.2,0.5,0.3c0.2,0.1,0.3,0.2,0.5,0.3c0.3,0.2,0.7,0.4,1,0.6c0.5,0.3,1,0.6,1.5,0.9c0.3,0.1,0.5,0.3,0.8,0.4
			s0.5,0.3,0.8,0.4c0.4,0.2,0.7,0.3,1.1,0.5s0.7,0.3,1.1,0.4l0,0c0.2,0.1,0.4,0.2,0.7,0.2c0.2,0.1,0.4,0.2,0.7,0.2
			c0.4,0.1,0.9,0.3,1.3,0.4s0.9,0.2,1.3,0.3h0.1c0.4,0.1,0.8,0.2,1.2,0.2c0.1,0,0.2,0,0.3,0.1c0.1,0,0.2,0,0.3,0.1
			c0.2,0,0.4,0.1,0.7,0.1l0,0h0.1c0.6,0.1,1.2,0.2,1.8,0.2c0.4,0,0.7,0.1,1.1,0.1c0.1,0,0.3,0,0.4,0c0.4,0,0.8,0,1.2,0H215
			c0.3,0,0.5,0,0.8,0c0.2,0,0.3,0,0.5,0s0.4,0,0.6,0c0.2,0,0.4,0,0.6,0c0.3,0,0.5,0,0.8-0.1c0.2,0,0.5-0.1,0.7-0.1
			c0.3,0,0.7-0.1,1-0.1c0.1,0,0.2,0,0.3,0c0.2,0,0.5-0.1,0.7-0.1c0.3-0.1,0.7-0.1,1-0.2c0.4-0.1,0.7-0.2,1.1-0.3
			c0.4-0.1,0.7-0.2,1.1-0.3l0,0l0,0h0.1c0.4-0.1,0.7-0.2,1-0.3c0.4-0.1,0.8-0.3,1.1-0.4l0,0c0.4-0.1,0.7-0.3,1-0.4l0,0
			c0.1,0,0.2-0.1,0.3-0.1c0.3-0.1,0.6-0.3,0.9-0.4c0.4-0.2,0.7-0.4,1.1-0.6l0,0c0.4-0.2,0.7-0.4,1-0.6c0.2-0.1,0.3-0.2,0.4-0.3
			c0.2-0.1,0.3-0.2,0.4-0.3c0.4-0.3,0.8-0.5,1.3-0.8c0.3-0.2,0.6-0.5,0.9-0.7c0.3-0.2,0.6-0.4,0.9-0.7c0.9-0.7,1.7-1.5,2.5-2.3
			c0.2-0.2,0.4-0.4,0.5-0.6c0.4-0.4,0.8-0.9,1.2-1.4c0.3-0.3,0.5-0.7,0.8-1c0.2-0.2,0.3-0.4,0.5-0.6c0.1-0.1,0.1-0.2,0.2-0.2
			c0.1-0.2,0.2-0.3,0.3-0.5l0,0c0.2-0.3,0.3-0.5,0.5-0.8c0.1-0.2,0.2-0.3,0.3-0.5c0.1-0.1,0.2-0.3,0.2-0.4c0.2-0.3,0.4-0.6,0.5-0.9
			c0.1-0.2,0.2-0.4,0.3-0.7c0.1-0.2,0.2-0.4,0.3-0.6s0.2-0.4,0.3-0.6c0-0.1,0.1-0.1,0.1-0.2c0.2-0.3,0.3-0.7,0.4-1
			c0.1-0.1,0.1-0.2,0.2-0.4c0.1-0.3,0.2-0.6,0.4-1c0.1-0.4,0.3-0.8,0.4-1.2V485c0-0.1,0.1-0.2,0.1-0.3c0-0.1,0.1-0.2,0.1-0.3
			c0-0.1,0.1-0.2,0.1-0.2c0.1-0.2,0.1-0.3,0.1-0.5c0.1-0.2,0.1-0.5,0.2-0.7c0.1-0.2,0.1-0.4,0.2-0.7c0.1-0.2,0.1-0.4,0.1-0.6
			s0.1-0.4,0.1-0.6s0.1-0.4,0.1-0.6s0.1-0.4,0.1-0.6v-0.1c0.1-0.4,0.1-0.8,0.1-1.3c0-0.4,0.1-0.9,0.1-1.3s0-0.9,0-1.3V37
			C245.9,36.6,245.8,36.2,245.8,35.8z M237.4,476.2C237.4,476.2,237.4,476.3,237.4,476.2L237.4,476.2c0,0.2,0,0.3,0,0.3
			c0,0.1,0,0.2,0,0.3c0,0.2,0,0.5-0.1,0.7c0,0.1,0,0.1,0,0.2s0,0.2,0,0.3v0.1v0.1c0,0.2-0.1,0.4-0.1,0.6s-0.1,0.3-0.1,0.4
			c0,0.2-0.1,0.5-0.1,0.7c-0.1,0.6-0.3,1.3-0.5,1.9c-0.1,0.3-0.2,0.6-0.3,0.9c-1.1,3.1-3,5.9-5.3,8.3c-4.1,4.1-9.8,6.7-16.1,6.7
			H37.3c-12.5,0-22.8-10.3-22.8-22.8V37c0-12.5,10.3-22.8,22.8-22.8h22.4c1.7,0,3.1,1.4,3.1,3.1v1.3c0,7.5,6.1,13.5,13.5,13.5h99.1
			c7.5,0,13.5-6.1,13.5-13.5v-1.3c0-1.7,1.4-3.1,3.1-3.1h22.4c5.2,0,10.1,1.8,13.9,4.8c0.3,0.3,0.7,0.5,1,0.8
			c0.3,0.2,0.6,0.5,0.9,0.8l0.1,0.1c0.2,0.2,0.5,0.5,0.7,0.8c0.1,0.1,0.2,0.2,0.2,0.2c0.5,0.5,1,1.1,1.4,1.7
			c0.2,0.2,0.4,0.5,0.5,0.7c0.1,0.1,0.1,0.1,0.2,0.2c0.2,0.3,0.4,0.6,0.5,0.8c0,0,0,0.1,0.1,0.1c0.2,0.3,0.4,0.6,0.5,0.9
			c0,0,0,0,0,0.1c0.2,0.3,0.3,0.6,0.5,0.9s0.3,0.7,0.4,1c0.1,0.4,0.3,0.7,0.4,1.1c0.1,0.3,0.2,0.6,0.3,0.9c0.2,0.6,0.4,1.3,0.5,1.9
			c0.4,1.6,0.5,3.3,0.5,5v438c0,0.2,0,0.4,0,0.7C237.4,475.9,237.4,476,237.4,476.2z M140.3,22.9c-0.2,0.1-0.5,0.1-0.7,0.1h-26.4
			c-0.7,0-1.3-0.3-1.7-0.7c-0.4-0.4-0.7-1.1-0.7-1.7c0-1.4,1.1-2.5,2.5-2.5h26.4c1.4,0,2.5,1.1,2.5,2.5c0,0.7-0.3,1.3-0.7,1.7
			C141,22.6,140.7,22.8,140.3,22.9z M237.2,478.1v0.1C237.2,478.2,237.2,478.2,237.2,478.1V478C237.2,478.1,237.2,478.1,237.2,478.1
			z"/>
		<path class="st7" d="M142,20.6c0,1.4-1.1,2.5-2.5,2.5h-26.4c-1.4,0-2.5-1.1-2.5-2.5s1.1-2.5,2.5-2.5h26.4
			C140.9,18.1,142,19.2,142,20.6z"/>
		
			<linearGradient id="SVGID_2_" gradientUnits="userSpaceOnUse" x1="123.5" y1="2.2997" x2="123.5" y2="0.2398" gradientTransform="matrix(1 0 0 -1 0 512)">
			<stop  offset="0" style="stop-color:#FFFFFF"/>
			<stop  offset="1" style="stop-color:#B5B5B5"/>
			<stop  offset="1" style="stop-color:#0E0E0E"/>
		</linearGradient>
		<path class="st8" d="M4.9,491.7c0,0,8.5,15.3,25.9,19c0,0,2.5,0.7,5.2,0.7s177.7,0,177.7,0s16.6,1.9,28.4-12.5c0,0-9.8,11-28,11
			s-177.9,0-177.9,0S17.9,511,4.9,491.7z"/>
		
			<linearGradient id="SVGID_3_" gradientUnits="userSpaceOnUse" x1="250.9239" y1="248.25" x2="248.5288" y2="248.25" gradientTransform="matrix(1 0 0 -1 0 512)">
			<stop  offset="0" style="stop-color:#FFFFFF"/>
			<stop  offset="1" style="stop-color:#B5B5B5"/>
			<stop  offset="1" style="stop-color:#0E0E0E"/>
		</linearGradient>
		<path class="st9" d="M251,35.5c0,0,0,423.4,0,437.9c0,13.5-8.3,23.1-9.4,24.3c-0.1,0.1-0.1,0.1-0.1,0.1c-6,6.3-11.7,9.8-21.9,11.2
			c10.5-1.5,18.6-7,24.1-15.7l0,0c0.2-0.2,0.3-0.5,0.5-0.8s0.4-0.6,0.6-1c0.2-0.3,0.3-0.6,0.5-0.9c0.1-0.2,0.2-0.4,0.3-0.6
			c0.2-0.5,0.5-1,0.7-1.4c0.3-0.6,0.5-1.3,0.8-2c0.1-0.2,0.2-0.5,0.3-0.7c0.1-0.4,0.2-0.7,0.3-1.1c0.1-0.2,0.1-0.3,0.2-0.5
			c0.1-0.2,0.1-0.5,0.2-0.7l0,0c0.1-0.3,0.2-0.6,0.2-1c0.1-0.2,0.1-0.4,0.1-0.6v-0.1c0-0.1,0-0.2,0.1-0.3c0.1-0.4,0.1-0.7,0.2-1.1
			c0.1-0.6,0.2-1.2,0.2-1.8c0.1-0.4,0.1-0.9,0.1-1.3s0.1-0.7,0.1-1.1s0-0.9,0-1.3V34.4c0-5.7-1.4-11.2-3.9-15.9
			C250.9,27.1,251,35.5,251,35.5z"/>
		<path class="st10" d="M246,489.2c0.1-0.2,0.2-0.4,0.3-0.6c-0.2,0.5-0.4,1-0.7,1.4C245.7,489.7,245.8,489.5,246,489.2z"/>
		<path class="st10" d="M248.9,477.7c0-0.1,0-0.2,0-0.3c0,0.4-0.1,0.9-0.1,1.3C248.9,478.4,248.9,478.1,248.9,477.7z"/>
		<path class="st10" d="M249,34.4V37c0-3-0.4-5.8-1.1-8.6c-0.1-0.4-0.2-0.8-0.3-1.2c-0.2-0.7-0.4-1.5-0.7-2.2
			c-0.2-0.5-0.4-1-0.6-1.6c-0.2-0.5-0.5-1-0.7-1.5s-0.5-1-0.8-1.5s-0.6-1-0.9-1.5c-0.3-0.5-0.6-0.9-0.9-1.3
			c-0.4-0.6-0.8-1.1-1.2-1.6c-0.2-0.3-0.5-0.7-0.8-1c-0.3-0.4-0.7-0.8-1.1-1.3c-0.4-0.4-0.7-0.8-1.2-1.2c-4.1-4.1-9.3-7.1-15.1-8.7
			c3.2,0.7,6.2,1.9,8.9,3.4h0.1c2.2,1.2,4.2,2.5,6.1,4.1l0,0c0,0,0.1,0,0.1,0.1c2.6,2.3,4.7,4.7,6.3,7.1
			C247.6,23.2,249,28.6,249,34.4z"/>
		<path class="st11" d="M238.8,11.3C238.8,11.3,238.7,11.3,238.8,11.3L238.8,11.3C238.7,11.3,238.8,11.3,238.8,11.3z"/>
		<path class="st11" d="M243.7,493.3c0.8-1.3,1.6-2.7,2.2-4.1C245.3,490.6,244.6,492,243.7,493.3z"/>
		<path class="st11" d="M246,489.2c0.5-1.1,0.9-2.2,1.3-3.3C246.9,487,246.5,488.1,246,489.2z"/>
		
			<linearGradient id="SVGID_4_" gradientUnits="userSpaceOnUse" x1="122.9" y1="522.2484" x2="122.9" y2="488.6255" gradientTransform="matrix(1 0 0 -1 0 512)">
			<stop  offset="0.2706" style="stop-color:#E0DEDE"/>
			<stop  offset="1" style="stop-color:#0E0E0E"/>
		</linearGradient>
		<path class="st12" d="M244.4,17.3c-0.2-0.2-0.4-0.4-0.5-0.6c0,0,0,0,0-0.1c-1.6-1.8-3.7-3.1-8.3-7.1c-1.5-1.3-3.4-2.4-5.5-3.3
			c0,0,0,0-0.1,0l0,0l0,0C223.1,3.4,214.6,3,211.7,3c-3.8,0-5,0-5,0S52,3,42.1,3S28.3,3.7,18.6,8.8c-5.7,3-10.7,11.1-13.8,17.1l0,0
			c-0.5,1-1,1.9-1.4,2.8c-1.3,2.7-2,4.5-2,4.5c0.1-0.3,0.1-0.6,0.2-0.9c0.1-0.3,0.1-0.6,0.2-0.9c0-0.2,0.1-0.4,0.1-0.5
			c1-4.4,2.5-8.6,5-12.6l0,0c2.4-3.8,5.8-7.5,10.6-11C28.1-0.5,39,1,43.4,1h161.2c13.9,0,19-0.7,28.8,5.4c3.3,2.1,6.2,5.1,8.3,7.7
			l0.1,0.1C243,15.4,243.8,16.4,244.4,17.3z"/>
		
			<linearGradient id="SVGID_5_" gradientUnits="userSpaceOnUse" x1="245.15" y1="495.4672" x2="245.15" y2="493.0537" gradientTransform="matrix(1 0 0 -1 0 512)">
			<stop  offset="0.2706" style="stop-color:#E0DEDE"/>
			<stop  offset="1" style="stop-color:#0E0E0E"/>
		</linearGradient>
		<path class="st13" d="M245.9,19.7c0,0,0-0.1-0.1-0.1c-0.2-0.4-0.7-1.2-1.4-2.2C244.9,18,245.4,18.7,245.9,19.7z"/>
		<rect x="49.3" y="0" class="st14" width="3.2" height="2.6"/>
		<rect x="201" y="509.4" class="st14" width="3.2" height="2.6"/>
		<path class="st15" d="M218.8,6.1h-0.1h-0.1c0,0,0,0,0.1,0l0,0H218.8L218.8,6.1z M217.1,5.9H217h-0.1C216.9,5.9,217,5.9,217.1,5.9
			S217.1,5.9,217.1,5.9z M218.3,6C218.2,6,218.2,6,218.3,6c-0.1,0-0.2,0-0.2,0H218l0,0l0,0c0,0,0,0-0.1,0c0,0,0,0-0.1,0h-0.1
			c0,0,0,0-0.1,0s-0.1,0-0.1,0l0,0l0,0l0,0c0.1,0,0.1,0,0.2,0c0,0,0.1,0,0.2,0C218,6,218.2,6,218.3,6L218.3,6z M217.4,5.9L217.4,5.9
			C217.5,5.9,217.5,5.9,217.4,5.9L217.4,5.9L217.4,5.9z"/>
		
			<linearGradient id="SVGID_6_" gradientUnits="userSpaceOnUse" x1="10.0201" y1="498.1" x2="224.8454" y2="498.1" gradientTransform="matrix(1 0 0 -1 0 512)">
			<stop  offset="2.312660e-02" style="stop-color:#0E0E0E"/>
			<stop  offset="4.877187e-02" style="stop-color:#292929"/>
			<stop  offset="8.133629e-02" style="stop-color:#444444"/>
			<stop  offset="0.1188" style="stop-color:#5A5A5A"/>
			<stop  offset="0.1625" style="stop-color:#6B6B6B"/>
			<stop  offset="0.2166" style="stop-color:#767676"/>
			<stop  offset="0.2925" style="stop-color:#7D7D7D"/>
			<stop  offset="0.5032" style="stop-color:#7F7F7F"/>
			<stop  offset="0.7257" style="stop-color:#7D7D7D"/>
			<stop  offset="0.8059" style="stop-color:#767676"/>
			<stop  offset="0.863" style="stop-color:#6B6B6B"/>
			<stop  offset="0.9092" style="stop-color:#5A5A5A"/>
			<stop  offset="0.9488" style="stop-color:#444444"/>
			<stop  offset="0.9832" style="stop-color:#292A2A"/>
			<stop  offset="1" style="stop-color:#191A1A"/>
		</linearGradient>
		<path class="st16" d="M234.9,18.4c-5.8-5.6-9.8-7.7-19.7-8.4H43c-22,0-29.9,11.3-30.3,12c2-4.6,4-8,6.3-10.3c4.1-3,9.1-5,14.4-5.7
			c3-0.2,6.4-0.2,10.4-0.2h171.7c0.3,0,0.6,0,0.8,0c1.1,0,2.1,0.1,3.1,0.3c0.2,0,0.4,0.1,0.6,0.1C229,8,234.9,18.4,234.9,18.4z"/>
		
			<linearGradient id="SVGID_7_" gradientUnits="userSpaceOnUse" x1="245.6269" y1="255.6" x2="233.3493" y2="255.6" gradientTransform="matrix(1 0 0 -1 0 512)">
			<stop  offset="4.691630e-03" style="stop-color:#FFFFFF"/>
			<stop  offset="0.1897" style="stop-color:#8C8B8B"/>
			<stop  offset="1" style="stop-color:#0E0E0E"/>
		</linearGradient>
		<path class="st17" d="M226.7,9.3c0,0,10.8,5.7,15,16.4c2.9,7.5,2.3,21.7,2.3,21.7s0,406.9,0,415.2c0,8.3,1.1,22.8-6.5,31.8
			c-6.8,8-10.8,8.3-12.4,9.1c0,0,15.5-10,15.5-30.9s0-421.2,0-431.3S239.7,21.8,226.7,9.3z"/>
		<path class="st15" d="M249,35.9c0-0.4,0-0.7-0.1-1.1c0-0.3-0.1-0.7-0.1-1v-0.1c0-0.4-0.1-0.7-0.1-1.1c0-0.2-0.1-0.5-0.1-0.7
			c0-0.1,0-0.2-0.1-0.4c0-0.1,0-0.2,0-0.2c0-0.1,0-0.1,0-0.1v-0.1c0-0.2-0.1-0.4-0.1-0.6c0,0,0,0,0-0.1s0-0.1,0-0.2
			c-0.1-0.3-0.1-0.5-0.2-0.8l0,0c-0.1-0.3-0.2-0.7-0.3-1c-0.1-0.2-0.1-0.4-0.2-0.6l-0.2-0.6c0-0.1-0.1-0.3-0.1-0.4l0,0l0,0
			c-0.1-0.2-0.1-0.4-0.2-0.5c0-0.1,0-0.1-0.1-0.1l0,0c-0.1-0.4-0.2-0.7-0.4-1.1l0,0c-0.1-0.2-0.1-0.4-0.2-0.6c0-0.1-0.1-0.1-0.1-0.2
			l0,0c0-0.1-0.1-0.2-0.1-0.3c-0.1-0.2-0.1-0.3-0.2-0.5c-0.1-0.3-0.2-0.5-0.3-0.8s-0.2-0.5-0.3-0.7l0,0l0,0
			c-0.1-0.2-0.2-0.5-0.3-0.7c0,0,0,0,0-0.1c0,0,0-0.1-0.1-0.1V21c0,0,0-0.1-0.1-0.1c-0.1-0.2-0.2-0.3-0.3-0.5
			c-0.1-0.3-0.3-0.5-0.4-0.8c-0.1-0.3-0.3-0.5-0.4-0.8c-0.1-0.2-0.3-0.4-0.4-0.7c-0.2-0.2-0.3-0.4-0.4-0.7c-0.2-0.3-0.3-0.5-0.5-0.8
			s-0.4-0.6-0.7-0.9c-0.1-0.1-0.2-0.2-0.2-0.3c-0.1-0.1-0.1-0.1-0.1-0.2c0,0,0,0-0.1-0.1s-0.1-0.2-0.2-0.2l-0.1-0.1
			c0,0,0-0.1-0.1-0.1c-0.2-0.2-0.4-0.4-0.5-0.6c0,0,0,0,0-0.1c-0.2-0.2-0.3-0.4-0.5-0.5l0,0c-0.2-0.2-0.4-0.4-0.6-0.6l0,0
			c-0.2-0.2-0.4-0.4-0.6-0.6c-0.1-0.1-0.2-0.2-0.2-0.2c-0.1-0.1-0.2-0.2-0.2-0.2c-0.2-0.2-0.3-0.3-0.4-0.4c-0.1-0.1-0.2-0.2-0.3-0.2
			c-0.1-0.1-0.2-0.2-0.3-0.2c-0.3-0.3-0.7-0.6-1-0.8s-0.6-0.5-0.9-0.7l0,0c-0.2-0.2-0.4-0.4-0.7-0.5c-0.1,0-0.1-0.1-0.2-0.1
			c-0.2-0.1-0.4-0.3-0.5-0.4h-0.1c-0.1-0.1-0.2-0.1-0.3-0.2c-0.1-0.1-0.2-0.1-0.3-0.2c-0.2-0.1-0.4-0.3-0.6-0.4c0,0,0,0-0.1,0
			c-0.4-0.3-0.9-0.6-1.4-0.8c-0.1,0-0.1-0.1-0.2-0.1c-0.1,0-0.2-0.1-0.2-0.1l0,0c0,0-0.1,0-0.1-0.1c-0.1,0-0.1-0.1-0.2-0.1
			c-0.1-0.1-0.3-0.2-0.4-0.2l0,0c0,0-0.1,0-0.1-0.1c0,0,0,0-0.1,0l0,0l0,0c0,0,0,0-0.1,0c-0.3-0.2-0.7-0.3-1-0.5l0,0
			c-0.3-0.2-0.7-0.3-1-0.4s-0.6-0.3-0.9-0.4H227c-0.3-0.1-0.5-0.2-0.8-0.3c-0.2-0.1-0.3-0.1-0.5-0.2c-0.3-0.1-0.5-0.2-0.8-0.3
			C224.5,4,224.3,4,224,3.9l0,0c0,0,0,0-0.1,0c0,0,0,0-0.1,0s-0.2,0-0.2-0.1c-0.4-0.1-0.8-0.2-1.1-0.3c-0.7-0.2-1.4-0.3-2.1-0.4
			C220,3,219.7,3,219.3,2.9c-0.1,0-0.2,0-0.3-0.1c-0.1,0-0.2,0-0.4,0c-0.1,0-0.1,0-0.2,0c-0.1,0-0.1,0-0.2,0c-0.1,0-0.2,0-0.3,0
			s-0.2,0-0.3,0s-0.1,0-0.2,0c-0.1,0-0.2,0-0.2,0c-0.1,0-0.2,0-0.3,0h-0.1c-0.1,0-0.2,0-0.2,0c-0.1,0-0.2,0-0.2,0
			c-0.1,0-0.2,0-0.3,0H216h-0.1h-0.1h-0.3c-0.3,0-0.6,0-0.9,0H37.3c-0.4,0-0.8,0-1.2,0c-0.2,0-0.4,0-0.6,0c-0.2,0-0.4,0-0.6,0
			c-0.2,0-0.4,0-0.6,0c-0.3,0-0.6,0.1-0.9,0.1c-0.2,0-0.4,0-0.6,0.1c-0.1,0-0.2,0-0.3,0c-0.2,0-0.4,0-0.6,0c-0.2,0-0.4,0.1-0.6,0.1
			l0,0c-0.2,0-0.4,0.1-0.6,0.1s-0.4,0.1-0.6,0.1H30l0,0c-0.3,0.1-0.5,0.1-0.8,0.2c-0.1,0-0.3,0.1-0.4,0.1c-0.2,0-0.3,0.1-0.4,0.1
			c-0.8,0.2-1.6,0.5-2.4,0.7c-0.1,0-0.3,0.1-0.4,0.1s-0.1,0-0.2,0.1l0,0C25.3,4.8,25,4.9,24.8,5c-0.4,0.2-0.9,0.3-1.3,0.5
			c-0.3,0.1-0.5,0.2-0.8,0.4c-0.1,0-0.2,0.1-0.2,0.1c-0.1,0.1-0.3,0.1-0.4,0.2H22l0,0h-0.1l0,0l0,0l0,0l0,0l0,0
			c-0.1,0.1-0.2,0.1-0.3,0.2c-0.3,0.2-0.6,0.3-0.8,0.5C20.7,7,20.5,7,20.4,7.1c-0.2,0.1-0.4,0.2-0.6,0.4c-0.2,0.1-0.3,0.2-0.5,0.3
			C19,8,18.8,8.1,18.6,8.3c-0.7,0.4-1.3,0.9-1.9,1.4c-0.7,0.5-1.3,1.1-2,1.6c-0.2,0.2-0.5,0.4-0.7,0.7c-0.3,0.3-0.6,0.6-0.9,0.9l0,0
			c-0.3,0.3-0.5,0.5-0.8,0.8s-0.5,0.6-0.8,0.9c-0.2,0.3-0.4,0.5-0.7,0.8c-0.1,0.1-0.2,0.3-0.3,0.4c-0.4,0.5-0.8,1-1.1,1.6
			c-1.4,2-2.6,4.1-3.5,6.4c-0.1,0.3-0.3,0.7-0.4,1c-0.1,0.4-0.3,0.7-0.4,1.1l0,0l0,0c0,0,0,0.1-0.1,0.1l-0.1,0.2l-0.2,0.6l0,0
			c0,0.1-0.1,0.2-0.1,0.3c-0.1,0.4-0.2,0.8-0.3,1.2c-0.1,0.4-0.2,0.8-0.3,1.2c-0.1,0.4-0.2,0.8-0.2,1.2c-0.1,0.4-0.1,0.7-0.2,1.1
			c-0.1,0.4-0.1,0.7-0.1,1.1c0,0.2,0,0.4-0.1,0.5v0.1c0,0.2-0.1,0.5-0.1,0.7v0.1l0,0c0,0.3,0,0.5-0.1,0.8c0,0.3,0,0.5,0,0.8
			s0,0.7,0,1v438c0,0.2,0,0.3,0,0.5v0.1c0,0.1,0,0.2,0,0.4c0,0.2,0,0.4,0,0.6c0,0.3,0,0.6,0.1,0.9v0.1c0,0.4,0.1,0.8,0.1,1.2
			c0,0.1,0,0.2,0,0.4c0,0.4,0.1,0.7,0.1,1.1c0.1,0.5,0.2,0.9,0.2,1.4c0,0.1,0,0.2,0.1,0.3c0,0,0,0,0,0.1c0.1,0.2,0.1,0.5,0.2,0.7
			c0.1,0.4,0.2,0.8,0.3,1.2l0,0c0.1,0.4,0.2,0.8,0.3,1.2l0,0c0.1,0.3,0.2,0.7,0.3,1c0.1,0.3,0.2,0.7,0.4,1c0.1,0.3,0.3,0.7,0.4,1
			c0.2,0.6,0.5,1.2,0.8,1.8c0,0.1,0.1,0.1,0.1,0.2c0.2,0.3,0.3,0.6,0.5,0.9c0.3,0.6,0.7,1.2,1,1.8c0.2,0.3,0.4,0.6,0.6,0.9
			c0.2,0.3,0.4,0.6,0.6,0.9c0.4,0.5,0.8,1.1,1.2,1.6s0.8,1,1.3,1.5c0.2,0.2,0.4,0.4,0.6,0.7c0.2,0.2,0.4,0.4,0.6,0.6
			c0.1,0.1,0.3,0.3,0.4,0.4c0.1,0.1,0.2,0.2,0.4,0.3c0.4,0.4,0.8,0.7,1.2,1.1c0.1,0.1,0.1,0.1,0.2,0.2c0.4,0.3,0.8,0.7,1.2,1
			c0.3,0.2,0.5,0.4,0.8,0.6s0.5,0.4,0.8,0.6c0.2,0.2,0.5,0.3,0.7,0.5c0.3,0.2,0.6,0.4,0.9,0.6c0.4,0.2,0.7,0.4,1.1,0.6
			c0.1,0,0.1,0.1,0.2,0.1c0.1,0.1,0.2,0.1,0.3,0.2l0,0c0.2,0.1,0.5,0.3,0.7,0.4c0,0,0.1,0,0.1,0.1c0,0,0.1,0,0.1,0.1
			c0.1,0,0.1,0.1,0.2,0.1c1,0.5,1.9,0.9,2.9,1.3c0.4,0.2,0.8,0.3,1.2,0.4c0.4,0.1,0.7,0.2,1.1,0.3c0.4,0.1,0.7,0.2,1.1,0.3
			c0.1,0,0.3,0.1,0.4,0.1s0.1,0,0.2,0c0.3,0.1,0.6,0.1,0.9,0.2s0.7,0.1,1,0.2c0.4,0.1,0.8,0.1,1.2,0.2c0.4,0.1,0.8,0.1,1.2,0.2l0,0
			l0,0c0.1,0,0.2,0,0.2,0c0.1,0,0.1,0,0.2,0c0.3,0,0.6,0.1,0.8,0.1c0.3,0,0.7,0.1,1,0.1c0.6,0,1.2,0,1.8,0h177.3
			c1.9,0,3.8-0.2,5.6-0.5c0.4-0.1,0.7-0.1,1.1-0.2c3-0.6,5.9-1.6,8.6-3c5-2.5,9.2-6.1,12.4-10.5l0.1-0.1l0,0
			c0.2-0.2,0.3-0.5,0.5-0.7l0.1-0.1c0.2-0.3,0.4-0.6,0.6-1l0,0l0,0c0.2-0.2,0.3-0.5,0.4-0.7l0,0l0,0l0,0c0,0,0-0.1,0.1-0.1
			c0,0,0,0,0-0.1l0,0v-0.1c0.1-0.1,0.1-0.2,0.1-0.2l0,0c0.1-0.2,0.2-0.3,0.3-0.5l0,0c0.1-0.1,0.1-0.2,0.2-0.3c0-0.1,0.1-0.1,0.1-0.2
			c0.1-0.2,0.2-0.3,0.2-0.5c0,0,0,0,0-0.1c0.1-0.1,0.1-0.2,0.1-0.3l0,0l0,0c0,0,0,0,0-0.1l0,0c0,0,0,0,0-0.1l0,0l0,0l0,0l0,0l0,0
			l0,0l0,0l0,0c0.1-0.1,0.1-0.3,0.2-0.4c0.1-0.1,0.1-0.3,0.2-0.4c0-0.1,0-0.1,0.1-0.1l0,0l0,0c0-0.1,0-0.1,0.1-0.1c0,0,0,0,0-0.1
			l0,0l0,0l0,0l0,0l0,0l0,0v-0.1v-0.1c0,0,0,0,0-0.1l0,0l0,0l0,0l0,0l0,0l0,0l0,0c0,0,0,0,0-0.1l0,0c0,0,0,0,0-0.1l0,0l0,0l0,0l0,0
			c0-0.1,0.1-0.1,0.1-0.2l0,0l0,0l0,0l0,0l0,0l0,0c0,0,0,0,0-0.1l0,0l0,0l0,0c0,0,0,0,0-0.1l0,0l0,0l0,0l0,0l0,0l0,0l0,0
			c0.1-0.1,0.1-0.3,0.1-0.4c0,0,0-0.1,0.1-0.1c0-0.1,0.1-0.2,0.1-0.3l0,0l0,0l0,0l0,0l0,0l0,0c0,0,0,0,0-0.1l0,0
			c0-0.1,0.1-0.1,0.1-0.2l0,0l0,0l0,0l0,0c0,0,0,0,0-0.1s0-0.1,0.1-0.1v-0.1c0-0.1,0.1-0.2,0.1-0.2l0,0v-0.1c0-0.1,0-0.1,0.1-0.2
			v-0.1c0-0.1,0.1-0.2,0.1-0.3v-0.1l0,0l0,0l0,0v-0.1c0,0,0,0,0-0.1l0,0l0,0c0,0,0-0.1,0.1-0.1l0,0v-0.1c0,0,0,0,0-0.1v-0.1l0,0
			v-0.1v-0.1c0-0.1,0.1-0.2,0.1-0.3c0-0.1,0.1-0.2,0.1-0.4l0,0l0,0c0-0.1,0.1-0.2,0.1-0.3v-0.1l0,0c0,0,0,0,0-0.1l0,0l0,0
			c0,0,0,0,0-0.1c0.1-0.2,0.1-0.4,0.1-0.6v-0.1c0-0.1,0-0.1,0-0.1l0,0l0,0c0,0,0,0,0-0.1v-0.1v-0.1l0,0l0,0l0,0v-0.1
			c0-0.1,0-0.1,0-0.2l0,0c0-0.1,0-0.2,0-0.2v-0.2c0-0.1,0.1-0.3,0.1-0.4s0-0.2,0-0.2c0-0.2,0.1-0.4,0.1-0.5c0-0.3,0.1-0.6,0.1-1l0,0
			c0-0.2,0-0.3,0.1-0.5c0-0.1,0-0.1,0-0.2s0-0.2,0-0.3v-0.1l0,0l0,0c0-0.1,0-0.1,0-0.2c0-0.2,0-0.3,0-0.5s0-0.4,0-0.6
			c0-0.4,0-0.9,0-1.3V37C249,36.6,249,36.2,249,35.9z M21,501.6c-0.3-0.2-0.7-0.4-1-0.6c-0.2-0.1-0.3-0.2-0.5-0.3
			c-0.2-0.1-0.3-0.2-0.5-0.3c-0.3-0.2-0.6-0.5-0.9-0.7c0,0-0.1,0-0.1-0.1c-0.3-0.2-0.6-0.4-0.8-0.7c-0.1-0.1-0.2-0.2-0.3-0.3
			c-0.3-0.3-0.6-0.6-1-0.9c-0.1,0-0.1-0.1-0.2-0.1c-0.3-0.3-0.6-0.6-0.9-0.9c-0.1-0.1-0.1-0.1-0.2-0.2l0,0l0,0l-0.1-0.1
			c-0.2-0.2-0.5-0.5-0.7-0.8c-0.3-0.3-0.5-0.6-0.8-0.9c0-0.1-0.1-0.1-0.1-0.2c-0.2-0.2-0.3-0.4-0.5-0.6c0-0.1-0.1-0.1-0.1-0.2
			s-0.1-0.1-0.1-0.2c-0.1-0.1-0.2-0.2-0.2-0.3c-0.1-0.2-0.2-0.3-0.3-0.5c-0.2-0.3-0.5-0.7-0.7-1s-0.4-0.6-0.5-0.9
			c-0.2-0.3-0.4-0.7-0.6-1v-0.1c-0.2-0.3-0.3-0.6-0.5-1l0,0c-0.1-0.3-0.3-0.6-0.4-0.9c-0.3-0.6-0.5-1.2-0.8-1.9
			c-0.1-0.3-0.2-0.6-0.3-0.9c-0.1-0.3-0.2-0.7-0.3-1c-0.1-0.3-0.2-0.6-0.3-0.9c0-0.1,0-0.1-0.1-0.2c-0.1-0.3-0.2-0.6-0.3-1
			c0-0.1,0-0.1,0-0.2c-0.1-0.2-0.1-0.5-0.2-0.8c0-0.1-0.1-0.2-0.1-0.4c-0.1-0.3-0.1-0.6-0.2-1c-0.1-0.3-0.1-0.7-0.1-1l0,0
			c0-0.2-0.1-0.5-0.1-0.7c0-0.1,0-0.1,0-0.2c0-0.2,0-0.5-0.1-0.7c0-0.3,0-0.5-0.1-0.8c0-0.2,0-0.4,0-0.6c0-0.1,0-0.2,0-0.3v-0.1
			c0-0.2,0-0.3,0-0.5V37c0-0.7,0-1.4,0.1-2.1c0-0.1,0-0.2,0-0.3c0-0.2,0-0.3,0-0.5c0-0.3,0.1-0.6,0.1-0.9c0-0.1,0-0.1,0-0.2
			c0-0.3,0.1-0.5,0.1-0.8c0-0.2,0.1-0.5,0.1-0.7c0-0.1,0-0.1,0-0.2c0.1-0.3,0.1-0.5,0.1-0.8c0-0.1,0-0.2,0.1-0.3
			c0-0.1,0.1-0.3,0.1-0.4c0-0.2,0.1-0.3,0.1-0.5c0-0.1,0-0.2,0.1-0.3C7,28.8,7,28.6,7.1,28.4c0.1-0.4,0.2-0.7,0.3-1.1
			c0.1-0.2,0.1-0.5,0.2-0.7c0.1-0.3,0.2-0.6,0.3-0.9c0.1-0.3,0.2-0.6,0.4-0.9c0.1-0.3,0.2-0.6,0.4-0.9c0.2-0.5,0.4-0.9,0.7-1.4
			c0-0.1,0.1-0.1,0.1-0.2c0,0,0-0.1,0.1-0.1c0.2-0.3,0.4-0.7,0.5-1c0-0.1,0.1-0.1,0.1-0.2c0.2-0.4,0.4-0.7,0.7-1.1s0.6-0.9,0.9-1.3
			c0.2-0.3,0.4-0.6,0.7-0.9l0,0c0.1-0.2,0.3-0.3,0.4-0.5C13,17.1,13,17.1,13,17c0.2-0.2,0.4-0.5,0.6-0.7c0.3-0.3,0.6-0.7,0.9-1
			l0.1-0.1l0,0c0.1-0.1,0.2-0.2,0.3-0.3c0.2-0.2,0.4-0.4,0.5-0.5l0,0c0.2-0.2,0.4-0.4,0.7-0.6c0.2-0.2,0.4-0.4,0.7-0.6l0,0
			c0.4-0.4,0.9-0.8,1.4-1.1c0.2-0.2,0.5-0.3,0.7-0.5l0,0l0,0c0.1-0.1,0.2-0.1,0.3-0.2l0,0c0.2-0.1,0.3-0.2,0.5-0.3l0.1-0.1
			c0.2-0.1,0.4-0.2,0.5-0.4c0,0,0.1,0,0.1-0.1l0,0c0,0,0.1,0,0.1-0.1c0.1-0.1,0.2-0.1,0.3-0.2c0.1-0.1,0.2-0.1,0.3-0.2
			c0.1-0.1,0.2-0.1,0.3-0.2c0.1-0.1,0.2-0.1,0.2-0.1s0.1,0,0.1-0.1c0.1,0,0.2-0.1,0.2-0.1l0,0c0.1-0.1,0.3-0.1,0.4-0.2l0,0
			C22.5,9.2,22.7,9.1,23,9l0,0l0,0h0.1c0.4,0,0.6-0.1,0.9-0.2c0.3-0.1,0.6-0.3,0.9-0.4c0.3-0.1,0.6-0.3,0.9-0.4c0,0,0.1,0,0.1-0.1
			c0.3-0.1,0.6-0.2,0.8-0.3c0.3-0.1,0.6-0.2,0.9-0.3l0,0c0.1,0,0.2-0.1,0.3-0.1c0.1,0,0.1,0,0.1-0.1c0.1,0,0.2-0.1,0.2-0.1
			c0.1,0,0.2-0.1,0.2-0.1c0.1,0,0.2,0,0.3-0.1c0.5-0.2,1.1-0.3,1.6-0.4c0.3-0.1,0.5-0.1,0.8-0.2c0.1,0,0.2,0,0.4-0.1l0,0l0,0l0,0
			C31.7,6.1,31.9,6,32,6l0,0l0,0l0,0l0,0l0,0h0.1l0,0c0.1,0,0.3,0,0.4-0.1c0.2,0,0.4-0.1,0.6-0.1h0.1c0.1,0,0.2,0,0.4-0.1
			c0.2,0,0.3,0,0.5-0.1c0.6-0.1,1.3-0.1,2-0.1c0.3,0,0.7,0,1,0h177.3c0.1,0,0.3,0,0.4,0c0.1,0,0.3,0,0.4,0h0.1c0.1,0,0.1,0,0.1,0
			c0.1,0,0.2,0,0.4,0c0.1,0,0.2,0,0.4,0c0.1,0,0.2,0,0.4,0h0.1h0.1c0,0,0,0,0.1,0l0,0c0.1,0,0.1,0,0.2,0l0,0h0.1h0.1c0,0,0,0,0.1,0
			h0.1c0,0,0,0,0.1,0c0,0,0,0,0.1,0l0,0l0,0h0.1c0.1,0,0.1,0,0.2,0c0,0,0,0,0.1,0l0,0l0,0l0,0c0.1,0,0.1,0,0.2,0l0,0c0,0,0,0,0.1,0
			c0,0,0,0,0.1,0l0,0h0.1l0,0l0,0h0.1h0.1l0,0c0.1,0,0.2,0,0.3,0s0.1,0,0.2,0h0.1h0.1h0.1h0.2h0.1h0.1l0,0h0.1h0.1
			c0.6,0.1,1.3,0.2,1.9,0.4c0.6,0.2,1.2,0.3,1.8,0.5c0.3,0.1,0.7,0.2,1,0.3c0.3,0.1,0.6,0.2,1,0.4s0.6,0.3,0.9,0.4
			c0.3,0.1,0.6,0.3,0.9,0.4c0.3,0.1,0.6,0.3,0.9,0.4c0.9,0.5,1.8,1,2.6,1.5h0.1c0.4,0.2,0.7,0.5,1,0.7s0.5,0.4,0.8,0.6l0,0
			c0.1,0.1,0.3,0.2,0.4,0.3c0.1,0.1,0.3,0.2,0.4,0.3c0.3,0.2,0.5,0.4,0.8,0.6c0.3,0.2,0.5,0.4,0.8,0.7s0.7,0.6,1,1
			c0.2,0.2,0.4,0.4,0.6,0.6c0.1,0.1,0.2,0.2,0.3,0.3c0.3,0.3,0.6,0.7,0.9,1l0,0c0.1,0.1,0.2,0.2,0.2,0.3c0,0.1,0.1,0.1,0.1,0.2
			c0.1,0.1,0.2,0.3,0.3,0.4l0.1,0.1c0.1,0.2,0.2,0.3,0.4,0.5s0.3,0.4,0.4,0.6c0.1,0.2,0.3,0.4,0.4,0.6c0.3,0.5,0.7,1,1,1.5
			c0.1,0.2,0.2,0.4,0.3,0.5c0.1,0.2,0.2,0.4,0.3,0.5s0.1,0.2,0.2,0.3c0.1,0.1,0.1,0.2,0.2,0.3c0.2,0.4,0.4,0.7,0.5,1.1
			c0.2,0.3,0.3,0.7,0.4,1c0.2,0.4,0.3,0.8,0.5,1.1V25c0.1,0.2,0.2,0.4,0.2,0.6c0.1,0.2,0.2,0.4,0.2,0.6c0.1,0.4,0.2,0.7,0.3,1.1
			c0,0.1,0.1,0.2,0.1,0.2c0.1,0.2,0.1,0.3,0.1,0.5c0,0.1,0,0.2,0.1,0.2c0.1,0.3,0.2,0.6,0.2,0.9c0,0,0,0,0,0.1
			c0.1,0.3,0.1,0.6,0.2,0.9c0,0.1,0,0.1,0,0.2c0.1,0.4,0.1,0.7,0.2,1.1c0,0.2,0,0.3,0.1,0.5c0.1,0.4,0.1,0.7,0.1,1.1l0,0
			c0,0.4,0.1,0.8,0.1,1.2c0,0.1,0,0.3,0,0.4c0,0.4,0,0.8,0,1.2v438c0,0.4,0,0.9,0,1.3s0,0.9-0.1,1.3c0,0.4-0.1,0.8-0.1,1.3v0.1
			c0,0.2-0.1,0.4-0.1,0.6s-0.1,0.4-0.1,0.6s-0.1,0.4-0.1,0.6s-0.1,0.4-0.1,0.6s-0.1,0.4-0.2,0.7c-0.1,0.2-0.1,0.5-0.2,0.7
			c0,0.2-0.1,0.3-0.1,0.5c0,0.1-0.1,0.2-0.1,0.2c0,0.1-0.1,0.2-0.1,0.3c0,0.1-0.1,0.2-0.1,0.3v0.1c-0.1,0.4-0.3,0.8-0.4,1.2
			c-0.1,0.3-0.2,0.6-0.4,1c-0.1,0.1-0.1,0.2-0.2,0.4c-0.1,0.3-0.3,0.7-0.4,1c0,0.1-0.1,0.1-0.1,0.2c-0.1,0.2-0.2,0.4-0.3,0.6
			s-0.2,0.4-0.3,0.6s-0.2,0.4-0.3,0.7c-0.2,0.3-0.4,0.6-0.5,0.9c-0.1,0.1-0.1,0.3-0.2,0.4c-0.1,0.2-0.2,0.3-0.3,0.5
			c-0.2,0.3-0.3,0.5-0.5,0.8l0,0c-0.1,0.2-0.2,0.3-0.3,0.5c-0.1,0.1-0.1,0.2-0.2,0.2c-0.2,0.2-0.3,0.4-0.5,0.6
			c-0.3,0.3-0.5,0.7-0.8,1c-0.4,0.5-0.8,0.9-1.2,1.4c-0.2,0.2-0.4,0.4-0.5,0.6c-0.8,0.8-1.6,1.6-2.5,2.3c-0.3,0.2-0.6,0.5-0.9,0.7
			c-0.3,0.2-0.6,0.5-0.9,0.7c-0.4,0.3-0.8,0.6-1.3,0.8c-0.2,0.1-0.3,0.2-0.4,0.3c-0.2,0.1-0.3,0.2-0.4,0.3c-0.3,0.2-0.7,0.4-1,0.6
			l0,0c-0.4,0.2-0.7,0.4-1.1,0.6c-0.3,0.1-0.6,0.3-0.9,0.4c-0.1,0-0.2,0.1-0.3,0.1l0,0c-0.3,0.2-0.7,0.3-1,0.4l0,0
			c-0.4,0.1-0.7,0.3-1.1,0.4c-0.3,0.1-0.7,0.2-1,0.3h-0.1l0,0l0,0c-0.4,0.1-0.7,0.2-1.1,0.3c-0.4,0.1-0.7,0.2-1.1,0.3
			c-0.3,0.1-0.7,0.1-1,0.2c-0.2,0-0.5,0.1-0.7,0.1c-0.1,0-0.2,0-0.3,0c-0.3,0.1-0.7,0.1-1,0.1c-0.2,0-0.5,0.1-0.7,0.1
			c-0.3,0-0.5,0.1-0.8,0.1c-0.2,0-0.4,0-0.6,0c-0.2,0-0.4,0-0.6,0c-0.2,0-0.3,0-0.5,0c-0.3,0-0.5,0-0.8,0H37.3c-0.4,0-0.8,0-1.2,0
			c-0.1,0-0.3,0-0.4,0c-0.4,0-0.7,0-1.1-0.1c-0.6,0-1.2-0.1-1.8-0.2h-0.1l0,0c-0.2,0-0.4-0.1-0.7-0.1c-0.1,0-0.2,0-0.3-0.1
			c-0.1,0-0.2,0-0.3-0.1c-0.4-0.1-0.8-0.2-1.2-0.2h-0.1c-0.4-0.1-0.9-0.2-1.3-0.3c-0.4-0.1-0.9-0.3-1.3-0.4
			c-0.2-0.1-0.4-0.1-0.7-0.2c-0.2-0.1-0.4-0.2-0.7-0.2l0,0c-0.4-0.1-0.7-0.3-1.1-0.4c-0.4-0.2-0.7-0.3-1.1-0.5
			c-0.3-0.1-0.5-0.3-0.8-0.4s-0.5-0.3-0.8-0.4C22,502.2,21.5,501.9,21,501.6z"/>
		
			<linearGradient id="SVGID_8_" gradientUnits="userSpaceOnUse" x1="16.5105" y1="7.8895" x2="-0.814" y2="25.2141" gradientTransform="matrix(1 0 0 -1 0 512)">
			<stop  offset="5.009510e-02" style="stop-color:#939292"/>
			<stop  offset="1" style="stop-color:#0E0E0E"/>
		</linearGradient>
		<path class="st18" d="M19,505.1c-0.2-0.1-1.3-0.4-2.8-1.1s-3.5-1.6-5-2.8l0,0c-0.4-0.3-0.8-0.7-1.2-1.1c-1.8-1.9-3.4-4.1-4.8-6.7
			c0-0.1-0.1-0.1-0.1-0.2c-0.2-0.4-0.4-0.8-0.6-1.3c-0.5-1-0.9-2-1.3-3.2l0,0c-0.1-0.2-0.1-0.4-0.2-0.6c0.1,0.2,0.7,1,1.5,2.3
			c2.2,3.2,6.5,8.9,11.1,12.5c0,0,0,0,0.1,0c0.1,0.1,0.3,0.2,0.4,0.3c0.2,0.1,0.4,0.3,0.6,0.4C17.4,504.2,18.2,504.7,19,505.1
			L19,505.1z"/>
		
			<linearGradient id="SVGID_9_" gradientUnits="userSpaceOnUse" x1="19.2585" y1="13.4" x2="227.2482" y2="13.4" gradientTransform="matrix(1 0 0 -1 0 512)">
			<stop  offset="0" style="stop-color:#0E0E0E"/>
			<stop  offset="3.880912e-02" style="stop-color:#2B2A2A"/>
			<stop  offset="9.212717e-02" style="stop-color:#4B4A4A"/>
			<stop  offset="0.1501" style="stop-color:#656464"/>
			<stop  offset="0.2133" style="stop-color:#7A7979"/>
			<stop  offset="0.2845" style="stop-color:#888787"/>
			<stop  offset="0.3704" style="stop-color:#908F8F"/>
			<stop  offset="0.5106" style="stop-color:#939292"/>
			<stop  offset="0.6444" style="stop-color:#908F8F"/>
			<stop  offset="0.7267" style="stop-color:#888787"/>
			<stop  offset="0.7951" style="stop-color:#797979"/>
			<stop  offset="0.8559" style="stop-color:#656464"/>
			<stop  offset="0.9117" style="stop-color:#4A4A4A"/>
			<stop  offset="0.963" style="stop-color:#2A2A2A"/>
			<stop  offset="1" style="stop-color:#0E0E0E"/>
		</linearGradient>
		<path class="st19" d="M13.6,491.5c0,0,7.2,10,22.3,10s173,0,179,0s11.3-1.6,17.6-5.3c0,0-5.7,9.5-13.9,9.5s-175.6,0-183.7,0
			C26.7,505.6,16.6,498.5,13.6,491.5z"/>
		<path class="st20" d="M216.9,505.6c-0.4,0-1.3,0-2.5,0c-5.5,0-168.2,0-176.6,0c-1.2,0-2.1,0-2.5,0c-2.3,0-5-0.6-7.7-1.6
			c-1.4-0.5-2-0.8-1.8-0.6c2.4,3.6,6.6,3.8,13.6,3.8s167.3,0,176,0c8.6,0,14.2-7.1,14.2-7.1c-0.7,0.6-1.5,1.2-2.5,1.7
			C224.1,503.8,220.5,505.6,216.9,505.6z"/>
		
			<linearGradient id="SVGID_10_" gradientUnits="userSpaceOnUse" x1="5.7154" y1="257.15" x2="10.513" y2="257.15" gradientTransform="matrix(1 0 0 -1 0 512)">
			<stop  offset="4.943381e-02" style="stop-color:#939292"/>
			<stop  offset="1" style="stop-color:#0E0E0E"/>
		</linearGradient>
		<path class="st21" d="M22,8.3C12.5,13.7,6.1,25.3,6.1,37v437.1c0,20,16.7,27.3,16.7,27.3c-5.1-3.1-13.2-12.1-13.2-24
			c0-4.8,0-426.6,0-441.6C9.7,21.4,21.4,8.9,22,8.3z"/>
		<path class="st22" d="M236.4,30.1c0.2,0.6,0.4,1.3,0.5,1.9C236.8,31.3,236.6,30.7,236.4,30.1z"/>
		<path class="st22" d="M237.5,37v438c0,2.7-0.5,5.4-1.4,7.8c0.9-2.4,1.4-5.1,1.4-7.8V37c0-1.7-0.2-3.4-0.6-5
			C237.3,33.6,237.5,35.3,237.5,37z"/>
		
			<linearGradient id="SVGID_11_" gradientUnits="userSpaceOnUse" x1="232.2" y1="488.788" x2="232.2" y2="491.0471" gradientTransform="matrix(1 0 0 -1 0 512)">
			<stop  offset="2.312660e-02" style="stop-color:#0E0E0E"/>
			<stop  offset="0.18" style="stop-color:#222222"/>
			<stop  offset="0.738" style="stop-color:#656565"/>
			<stop  offset="1" style="stop-color:#7F7F7F"/>
		</linearGradient>
		<path class="st23" d="M232.9,23.4c-0.4-0.6-0.9-1.1-1.4-1.7C232,22.2,232.5,22.8,232.9,23.4z"/>
	</g>
</g>
</svg>
