<?xml version="1.0" encoding="utf-8"?>
<!-- Generator: Adobe Illustrator 25.0.1, SVG Export Plug-In . SVG Version: 6.00 Build 0)  -->
<svg version="1.1" id="Layer_1" xmlns="http://www.w3.org/2000/svg" xmlns:xlink="http://www.w3.org/1999/xlink" x="0px" y="0px"
	 viewBox="0 0 245 512" style="enable-background:new 0 0 245 512;" xml:space="preserve">
<style type="text/css">
	.st0{opacity:5.000000e-02;fill:#2BBC8D;enable-background:new    ;}
	.st1{fill:url(#SVGID_1_);}
	.st2{fill:url(#SVGID_2_);}
	.st3{fill:url(#SVGID_3_);}
	.st4{fill:url(#SVGID_4_);}
	.st5{fill:url(#SVGID_5_);}
	.st6{fill:url(#SVGID_6_);}
	.st7{fill:url(#SVGID_7_);}
	.st8{opacity:0.7;fill:#87FFD2;enable-background:new    ;}
</style>
<g>
	<g>
		<path class="st0" d="M238.7,18v476c-3.6,6.8-9.5,12.3-16.7,15.3H20.7c-5.8-2.4-10.7-6.5-14.4-11.6V14.3c2.8-3.9,6.4-7.2,10.6-9.6
			h208.9C231.2,7.8,235.7,12.4,238.7,18z"/>
		<g>
			
				<linearGradient id="SVGID_1_" gradientUnits="userSpaceOnUse" x1="240.8" y1="342.3" x2="240.8" y2="428.9" gradientTransform="matrix(1 0 0 -1 0 512)">
				<stop  offset="0" style="stop-color:#808080"/>
				<stop  offset="1.466314e-02" style="stop-color:#727272"/>
				<stop  offset="5.667473e-02" style="stop-color:#4F4F4F"/>
				<stop  offset="0.1013" style="stop-color:#323232"/>
				<stop  offset="0.1488" style="stop-color:#1C1C1C"/>
				<stop  offset="0.2004" style="stop-color:#0C0C0C"/>
				<stop  offset="0.2592" style="stop-color:#030303"/>
				<stop  offset="0.3406" style="stop-color:#000000"/>
				<stop  offset="0.6981" style="stop-color:#000000"/>
				<stop  offset="0.7455" style="stop-color:#050505"/>
				<stop  offset="0.8005" style="stop-color:#131313"/>
				<stop  offset="0.8595" style="stop-color:#2A2A2A"/>
				<stop  offset="0.9211" style="stop-color:#4B4B4B"/>
				<stop  offset="0.9841" style="stop-color:#747474"/>
				<stop  offset="1" style="stop-color:#808080"/>
			</linearGradient>
			<path class="st1" d="M242.8,169.7h-4c-1.2,0-2.2-1-2.2-2.2V85.3c0-1.2,1-2.2,2.2-2.2h4c1.2,0,2.2,1,2.2,2.2v82.2
				C245,168.7,244,169.7,242.8,169.7z"/>
			
				<linearGradient id="SVGID_2_" gradientUnits="userSpaceOnUse" x1="240.8" y1="296.8" x2="240.8" y2="332.3" gradientTransform="matrix(1 0 0 -1 0 512)">
				<stop  offset="0" style="stop-color:#808080"/>
				<stop  offset="1.466314e-02" style="stop-color:#727272"/>
				<stop  offset="5.667473e-02" style="stop-color:#4F4F4F"/>
				<stop  offset="0.1013" style="stop-color:#323232"/>
				<stop  offset="0.1488" style="stop-color:#1C1C1C"/>
				<stop  offset="0.2004" style="stop-color:#0C0C0C"/>
				<stop  offset="0.2592" style="stop-color:#030303"/>
				<stop  offset="0.3406" style="stop-color:#000000"/>
				<stop  offset="0.6981" style="stop-color:#000000"/>
				<stop  offset="0.7455" style="stop-color:#050505"/>
				<stop  offset="0.8005" style="stop-color:#131313"/>
				<stop  offset="0.8595" style="stop-color:#2A2A2A"/>
				<stop  offset="0.9211" style="stop-color:#4B4B4B"/>
				<stop  offset="0.9841" style="stop-color:#747474"/>
				<stop  offset="1" style="stop-color:#808080"/>
			</linearGradient>
			<path class="st2" d="M242.8,215.2h-4c-1.2,0-2.2-1-2.2-2.2v-31.1c0-1.2,1-2.2,2.2-2.2h4c1.2,0,2.2,1,2.2,2.2V213
				C245,214.2,244,215.2,242.8,215.2z"/>
			
				<linearGradient id="SVGID_3_" gradientUnits="userSpaceOnUse" x1="0" y1="256.05" x2="242.7" y2="256.05" gradientTransform="matrix(1 0 0 -1 0 512)">
				<stop  offset="0" style="stop-color:#333333"/>
				<stop  offset="2.524770e-03" style="stop-color:#323232"/>
				<stop  offset="6.937935e-02" style="stop-color:#1C1C1C"/>
				<stop  offset="0.1422" style="stop-color:#0C0C0C"/>
				<stop  offset="0.2253" style="stop-color:#030303"/>
				<stop  offset="0.3406" style="stop-color:#000000"/>
				<stop  offset="0.6981" style="stop-color:#000000"/>
				<stop  offset="0.7778" style="stop-color:#050505"/>
				<stop  offset="0.8704" style="stop-color:#131313"/>
				<stop  offset="0.969" style="stop-color:#2A2A2A"/>
				<stop  offset="1" style="stop-color:#333333"/>
			</linearGradient>
			<path class="st3" d="M238.7,18c-3-5.6-7.5-10.3-12.9-13.4c-5-3-10.8-4.7-17.1-4.7H33.9c-6.2,0-12.1,1.7-17.1,4.7
				C12.7,7,9.1,10.3,6.3,14.3C2.3,19.8,0,26.6,0,33.9v444.2c0,7.4,2.3,14.1,6.3,19.6c3.6,5.1,8.6,9.1,14.4,11.6
				c4.1,1.8,8.5,2.7,13.3,2.7h174.8c4.7,0,9.2-0.9,13.3-2.7c7.2-3,13.1-8.5,16.7-15.3c2.5-4.7,3.9-10.1,3.9-15.9V33.9
				C242.6,28.1,241.2,22.8,238.7,18z M6.3,36.8c0-14.2,11.5-25.6,25.6-25.6h178.8c14.2,0,25.6,11.5,25.6,25.6v438.5
				c0,14.2-11.5,25.6-25.6,25.6H32c-14.2,0-25.6-11.5-25.6-25.6L6.3,36.8L6.3,36.8z"/>
			
				<linearGradient id="SVGID_4_" gradientUnits="userSpaceOnUse" x1="6.785" y1="256.1" x2="0.9759" y2="256.1" gradientTransform="matrix(1 0 0 -1 0 512)">
				<stop  offset="0" style="stop-color:#000000"/>
				<stop  offset="0.157" style="stop-color:#050505"/>
				<stop  offset="0.3394" style="stop-color:#131313"/>
				<stop  offset="0.5345" style="stop-color:#2A2A2A"/>
				<stop  offset="0.7385" style="stop-color:#4B4B4B"/>
				<stop  offset="0.9475" style="stop-color:#747474"/>
				<stop  offset="1" style="stop-color:#808080"/>
			</linearGradient>
			<path class="st4" d="M3.8,478.5v-445c0-8.4,3.1-16,8.1-22c-6.6,6.2-10.8,15-10.8,24.7v439.4c0,9.8,4.1,18.6,10.8,24.7
				C6.9,494.5,3.8,486.9,3.8,478.5z"/>
			
				<linearGradient id="SVGID_5_" gradientUnits="userSpaceOnUse" x1="-3822.8367" y1="256.1" x2="-3828.646" y2="256.1" gradientTransform="matrix(-1 0 0 -1 -3587.0916 512)">
				<stop  offset="0" style="stop-color:#000000"/>
				<stop  offset="0.157" style="stop-color:#050505"/>
				<stop  offset="0.3394" style="stop-color:#131313"/>
				<stop  offset="0.5345" style="stop-color:#2A2A2A"/>
				<stop  offset="0.7385" style="stop-color:#4B4B4B"/>
				<stop  offset="0.9475" style="stop-color:#747474"/>
				<stop  offset="1" style="stop-color:#808080"/>
			</linearGradient>
			<path class="st5" d="M238.7,478.5v-445c0-8.4-3.1-16-8.1-22c6.6,6.2,10.8,15,10.8,24.7v439.4c0,9.8-4.1,18.6-10.8,24.7
				C235.6,494.5,238.7,486.9,238.7,478.5z"/>
			
				<linearGradient id="SVGID_6_" gradientUnits="userSpaceOnUse" x1="121.35" y1="496.3243" x2="121.35" y2="513.7309" gradientTransform="matrix(1 0 0 -1 0 512)">
				<stop  offset="0" style="stop-color:#000000"/>
				<stop  offset="0.157" style="stop-color:#050505"/>
				<stop  offset="0.3394" style="stop-color:#131313"/>
				<stop  offset="0.5345" style="stop-color:#2A2A2A"/>
				<stop  offset="0.7385" style="stop-color:#4B4B4B"/>
				<stop  offset="0.9475" style="stop-color:#747474"/>
				<stop  offset="1" style="stop-color:#808080"/>
			</linearGradient>
			<path class="st6" d="M205.9,2.6H36.8C18.1,2.6,2.9,17.7,2.9,36.5v4.8c0-18.7,15.2-33.9,33.9-33.9h169.1
				c18.7,0,33.9,15.2,33.9,33.9v-4.8C239.8,17.7,224.6,2.6,205.9,2.6z"/>
			
				<linearGradient id="SVGID_7_" gradientUnits="userSpaceOnUse" x1="-3928.9092" y1="2845.5498" x2="-3928.9092" y2="2862.9563" gradientTransform="matrix(-1 0 0 1 -3807.5591 -2349.3701)">
				<stop  offset="0" style="stop-color:#000000"/>
				<stop  offset="0.157" style="stop-color:#050505"/>
				<stop  offset="0.3394" style="stop-color:#131313"/>
				<stop  offset="0.5345" style="stop-color:#2A2A2A"/>
				<stop  offset="0.7385" style="stop-color:#4B4B4B"/>
				<stop  offset="0.9475" style="stop-color:#747474"/>
				<stop  offset="1" style="stop-color:#808080"/>
			</linearGradient>
			<path class="st7" d="M36.8,509.3h169.1c18.7,0,33.9-15.2,33.9-33.9v-4.8c0,18.7-15.2,33.9-33.9,33.9H36.8
				c-18.7,0-33.9-15.2-33.9-33.9v4.8C2.9,494.1,18.1,509.3,36.8,509.3z"/>
			<rect x="99.1" y="0.1" width="44.4" height="4.6"/>
		</g>
	</g>
	<path class="st8" d="M168.8,227.8l-40.7-32.9c-2.7-2.2-6.7-2.2-9.4,0l-40.1,32.9c-3.2,2.6-3.6,7.3-1,10.5s7.3,3.6,10.5,1l27.9-23
		v95c0,4.1,3.3,7.4,7.4,7.4s7.4-3.3,7.4-7.4v-95.2l28.6,23.1c3.2,2.5,7.8,2,10.4-1.1C172.4,235,171.9,230.4,168.8,227.8L168.8,227.8
		z"/>
</g>
</svg>
