<?xml version="1.0" encoding="utf-8"?>
<!-- Generator: Adobe Illustrator 25.0.1, SVG Export Plug-In . SVG Version: 6.00 Build 0)  -->
<svg version="1.1" id="Layer_1" xmlns="http://www.w3.org/2000/svg" xmlns:xlink="http://www.w3.org/1999/xlink" x="0px" y="0px"
	 viewBox="0 0 512 512" style="enable-background:new 0 0 512 512;" xml:space="preserve">
<style type="text/css">
	.st0{fill:url(#SVGID_1_);}
	.st1{fill:#FFFFFF;}
</style>
<g>
	
		<linearGradient id="SVGID_1_" gradientUnits="userSpaceOnUse" x1="77.2684" y1="438.3792" x2="432.2873" y2="76.1151" gradientTransform="matrix(1 0 0 -1 0 512)">
		<stop  offset="0" style="stop-color:#01BF95"/>
		<stop  offset="1" style="stop-color:#2BD083"/>
	</linearGradient>
	<circle class="st0" cx="256" cy="256" r="256"/>
	<path class="st1" d="M225.1,344.4c-3.2-3.2-8.3-3.2-11.4,0l-21.2,21.2c-3.2,3.2-3.2,8.3,0,11.4c3.1,3.1,8.3,3.2,11.4,0l21.2-21.2
		C228.3,352.6,228.3,347.5,225.1,344.4L225.1,344.4z M167.6,286.9c-3.2-3.2-8.3-3.2-11.4,0L135,308c-3.2,3.2-3.2,8.3,0,11.4
		c3.2,3.2,8.3,3.2,11.4,0l21.2-21.2C170.8,295.1,170.8,290,167.6,286.9L167.6,286.9z M206,306c-3.2-3.2-8.3-3.2-11.4,0l-53.7,53.7
		c-3.2,3.2-3.2,8.3,0,11.4s8.3,3.2,11.4,0l53.7-53.7C209.1,314.3,209.1,309.2,206,306z M371.4,150.8l-76.7,234.6
		c-2.2,6.6-11.2,7.6-14.7,1.6l-51.6-88.7c-1.6-2.8-1.4-6.3,0.5-8.9l18.5-24.9L222.6,283c-2.6,1.9-6.1,2.1-8.9,0.5L125,231.9
		c-6-3.5-5.1-12.5,1.6-14.7l234.6-76.7C367.5,138.5,373.5,144.5,371.4,150.8L371.4,150.8z"/>
</g>
</svg>
