<?xml version="1.0" encoding="utf-8"?>
<!-- Generator: Adobe Illustrator 25.0.1, SVG Export Plug-In . SVG Version: 6.00 Build 0)  -->
<svg version="1.1" id="Layer_1" xmlns="http://www.w3.org/2000/svg" xmlns:xlink="http://www.w3.org/1999/xlink" x="0px" y="0px"
	 viewBox="0 0 512 512" style="enable-background:new 0 0 512 512;" xml:space="preserve">
<style type="text/css">
	.st0{fill:#77B7FF;}
	.st1{fill:#FFFFFF;}
</style>
<g>
	<circle class="st0" cx="256" cy="256" r="256"/>
	<g>
		<g>
			<g>
				<g>
					<g>
						<path class="st1" d="M391.4,259.8c-3-5.3-9.9-7.2-15.5-4l-37.6,21.7l-9.6,5.6v52l8.9,5.3c0.3,0,0.3,0.3,0.7,0.3l36.9,21.4
							c1.6,1.3,4,2,6.3,2c6.3,0,11.2-4.9,11.2-11.2v-44.1l0.3-43.5C393,263.4,392.7,261.4,391.4,259.8z"/>
						<path class="st1" d="M172,243c29.3,0,53-23.7,53-53s-23.7-53-53-53s-53,23.7-53,53C118.6,219.3,142.7,243,172,243z M172,168.2
							c12.2,0,21.7,9.9,21.7,21.7c0,12.2-9.9,21.7-21.7,21.7c-11.9,0-21.7-9.9-21.7-21.7C149.9,177.8,159.8,168.2,172,168.2z"/>
						<path class="st1" d="M306.4,246c-8.6,4.3-18.1,6.9-28.3,6.9c-12.5,0-24.4-3.6-34.3-10.2h-37.6c-9.9,6.6-21.7,10.2-34.3,10.2
							c-10.2,0-19.8-2.3-28.3-6.9c-7.6,4.3-12.8,12.8-12.8,22.1v80.4c0,14.8,12.2,26.7,26.7,26.7h135.4c14.8,0,26.7-12.2,26.7-26.7
							V268C319.3,258.8,314,250.2,306.4,246z"/>
						<path class="st1" d="M278.1,243c29.3,0,53-23.7,53-53s-23.7-53-53-53s-53,23.7-53,53C225,219.3,248.8,243,278.1,243z
							 M278.1,168.2c12.2,0,21.7,9.9,21.7,21.7c0,12.2-9.9,21.7-21.7,21.7s-21.7-9.9-21.7-21.7C256.3,177.8,265.9,168.2,278.1,168.2
							z"/>
					</g>
				</g>
			</g>
		</g>
	</g>
</g>
</svg>
